<?xml version="1.0" encoding="UTF-8"?>
<!DOCTYPE svg PUBLIC "-//W3C//DTD SVG 1.1//EN" "http://www.w3.org/Graphics/SVG/1.1/DTD/svg11.dtd">
<svg xmlns="http://www.w3.org/2000/svg" version="1.1" width="1248px" height="200px" style="shape-rendering:geometricPrecision; text-rendering:geometricPrecision; image-rendering:optimizeQuality; fill-rule:evenodd; clip-rule:evenodd" xmlns:xlink="http://www.w3.org/1999/xlink">
<g><path style="opacity:0.901" fill="#0072d8" d="M 417.5,6.5 C 417.721,7.73485 418.388,8.73485 419.5,9.5C 419.256,12.3498 418.923,15.1831 418.5,18C 421.167,19 421.167,20 418.5,21C 419.747,22.4579 419.747,23.9579 418.5,25.5C 419.167,26.1667 419.833,26.8333 420.5,27.5C 419.471,27.2964 418.471,27.7964 417.5,29C 418.056,29.3826 418.389,29.8826 418.5,30.5C 417.288,32.2637 417.621,33.9303 419.5,35.5C 417.633,36.7973 417.3,38.2973 418.5,40C 417.904,43.7175 417.238,47.3842 416.5,51C 408.831,49.0177 401.165,46.6844 393.5,44C 392.046,40.0621 392.212,36.2288 394,32.5C 396.29,34.5955 398.79,35.2621 401.5,34.5C 399.146,31.312 396.312,28.6453 393,26.5C 392.501,21.5111 392.334,16.5111 392.5,11.5C 397.673,11.6682 401.506,14.0016 404,18.5C 404.333,15.1667 404.667,11.8333 405,8.5C 405.516,5.96642 406.683,3.79976 408.5,2C 410.859,1.79225 413.026,1.62558 415,1.5C 415.757,3.31456 416.59,4.98123 417.5,6.5 Z"/></g>
<g><path style="opacity:0.251" fill="#0072d8" d="M 417.5,5.5 C 418.833,6.16667 418.833,6.16667 417.5,5.5 Z"/></g>
<g><path style="opacity:0.282" fill="#0072d8" d="M 1017.5,8.5 C 1017.37,7.76109 1017.54,7.09442 1018,6.5C 1018.69,7.43677 1018.53,8.10343 1017.5,8.5 Z"/></g>
<g><path style="opacity:0.879" fill="#0072d8" d="M 1017.5,8.5 C 1017.39,9.11742 1017.06,9.61742 1016.5,10C 1017.79,10.49 1019.13,10.6567 1020.5,10.5C 1020.83,15.2137 1020.49,19.8804 1019.5,24.5C 1006.32,28.1112 1006.32,30.7778 1019.5,32.5C 1020.23,36.1739 1020.9,39.8406 1021.5,43.5C 1020.5,43.8333 1019.5,44.1667 1018.5,44.5C 1010.49,44.0575 1002.65,44.0575 995,44.5C 993.43,39.981 993.597,35.481 995.5,31C 994.949,29.6015 994.616,28.2682 994.5,27C 995.566,23.9735 996.4,20.8069 997,17.5C 997.333,17.8333 997.667,18.1667 998,18.5C 998.232,17.2625 998.732,16.2625 999.5,15.5C 1000.25,16.5735 1001.25,16.7401 1002.5,16C 1001.66,14.7567 1002,13.5901 1003.5,12.5C 1004.9,12.3602 1006.4,12.3602 1008,12.5C 1008.08,10.9154 1008.25,9.58205 1008.5,8.5C 1009.49,12.375 1010.65,12.375 1012,8.5C 1012.33,9.16667 1012.67,9.83333 1013,10.5C 1013.25,9.37598 1013.75,8.37598 1014.5,7.5C 1015.42,8.12723 1016.42,8.46056 1017.5,8.5 Z"/></g>
<g><path style="opacity:0.923" fill="#0072d8" d="M 378.5,10.5 C 381.833,10.5 385.167,10.5 388.5,10.5C 388.5,15.1667 388.5,19.8333 388.5,24.5C 384.099,23.8696 380.432,25.2029 377.5,28.5C 377.709,29.086 378.043,29.586 378.5,30C 381.758,30.2117 384.924,30.7117 388,31.5C 388.827,35.5411 388.66,39.5411 387.5,43.5C 379.191,42.3044 370.858,42.3044 362.5,43.5C 361.24,29.0242 366.573,18.0242 378.5,10.5 Z"/></g>
<g><path style="opacity:0.897" fill="#0072d8" d="M 201.5,11.5 C 208.04,14.6872 214.54,18.0206 221,21.5C 222.726,21.0541 224.226,20.2208 225.5,19C 227.134,18.5065 228.801,18.3398 230.5,18.5C 231.035,26.7669 228.035,33.2669 221.5,38C 219.5,38.6667 217.5,38.6667 215.5,38C 211.617,34.4496 207.451,31.2829 203,28.5C 201.709,22.8458 201.209,17.1791 201.5,11.5 Z"/></g>
<g><path style="opacity:0.251" fill="#0072d8" d="M 419.5,11.5 C 420.833,12.1667 420.833,12.1667 419.5,11.5 Z"/></g>
<g><path style="opacity:0.935" fill="#0072d8" d="M 195.5,12.5 C 197.249,16.5814 198.249,21.0814 198.5,26C 198.138,27.2247 197.638,28.3914 197,29.5C 191.673,31.6885 191.506,33.6885 196.5,35.5C 197.662,40.467 197.829,45.467 197,50.5C 189.926,48.1104 182.759,46.9438 175.5,47C 174.812,34.6924 179.146,24.3591 188.5,16C 190.925,14.7874 193.259,13.6207 195.5,12.5 Z"/></g>
<g><path style="opacity:0.889" fill="#0072d8" d="M 1024.5,12.5 C 1027.69,13.0922 1030.69,14.2589 1033.5,16C 1043.02,25.8871 1048.02,37.7204 1048.5,51.5C 1040.78,49.6502 1033.11,47.4835 1025.5,45C 1024.54,41.6064 1024.21,38.1064 1024.5,34.5C 1027.5,35.3416 1030.5,35.8416 1033.5,36C 1031.35,32.6876 1028.69,29.8543 1025.5,27.5C 1024.51,22.544 1024.17,17.544 1024.5,12.5 Z"/></g>
<g><path style="opacity:0.094" fill="#0072d8" d="M 420.5,13.5 C 421.525,13.8966 421.692,14.5632 421,15.5C 420.536,14.9056 420.369,14.2389 420.5,13.5 Z"/></g>
<g><path style="opacity:0.157" fill="#0072d8" d="M 999.5,15.5 C 999.369,14.7611 999.536,14.0944 1000,13.5C 1000.69,14.4368 1000.53,15.1034 999.5,15.5 Z"/></g>
<g><path style="opacity:0.094" fill="#0072d8" d="M 418.5,30.5 C 419.525,30.8966 419.692,31.5632 419,32.5C 418.536,31.9056 418.369,31.2389 418.5,30.5 Z"/></g>
<g><path style="opacity:0.92" fill="#0072d8" d="M 201.5,36.5 C 207.473,38.2366 212.973,40.9032 218,44.5C 218.333,44.1667 218.667,43.8333 219,43.5C 220.044,44.6226 220.71,45.9559 221,47.5C 221.333,47.1667 221.667,46.8333 222,46.5C 222.869,48.5806 223.369,50.7473 223.5,53C 222.708,68.2366 222.374,83.9032 222.5,100C 223.24,101.785 223.907,103.618 224.5,105.5C 223.873,108.702 223.206,111.869 222.5,115C 222.94,123.46 222.94,131.793 222.5,140C 222.905,144.249 224.405,148.083 227,151.5C 228.266,157.631 227.266,163.298 224,168.5C 217.139,172.286 212.139,170.62 209,163.5C 208.712,128.159 208.045,92.8255 207,57.5C 205.333,55.5 203.667,53.5 202,51.5C 201.501,46.5111 201.334,41.5111 201.5,36.5 Z"/></g>
<g><path style="opacity:0.89" fill="#0072d8" d="M 598.5,36.5 C 599.8,38.223 600.467,40.3897 600.5,43C 599.297,48.6744 599.297,54.341 600.5,60C 600.333,61.8333 600.167,63.6667 600,65.5C 596.773,65.677 594.44,64.0104 593,60.5C 591,54.5 591,48.5 593,42.5C 594.36,39.9774 596.193,37.9774 598.5,36.5 Z"/></g>
<g><path style="opacity:0.899" fill="#0072d8" d="M 603.5,36.5 C 606.195,36.933 608.362,38.2663 610,40.5C 615.364,49.4087 614.53,57.5754 607.5,65C 606.207,65.49 604.873,65.6567 603.5,65.5C 604.672,55.8438 604.672,46.1772 603.5,36.5 Z"/></g>
<g><path style="opacity:0.889" fill="#0072d8" d="M 924.5,177.5 C 923.48,176.046 922.313,175.713 921,176.5C 920.116,171.564 918.949,166.731 917.5,162C 918.167,159.667 918.833,157.333 919.5,155C 918.732,135.747 918.565,115.914 919,95.5C 917.078,91.4034 913.912,89.0701 909.5,88.5C 909.334,84.1539 909.501,79.8206 910,75.5C 913.737,75.2073 917.57,75.0406 921.5,75C 922.701,74.0975 923.535,72.9308 924,71.5C 924.533,66.6529 924.366,61.8196 923.5,57C 924.057,49.1534 927.723,47.1534 934.5,51C 937.177,54.386 938.011,58.2194 937,62.5C 935.246,69.0641 932.413,75.0641 928.5,80.5C 932.431,90.0771 934.431,100.077 934.5,110.5C 933.976,128.953 933.976,147.786 934.5,167C 933.148,172.886 930.314,177.052 926,179.5C 925.722,178.584 925.222,177.918 924.5,177.5 Z"/></g>
<g><path style="opacity:0.894" fill="#0072d8" d="M 1063.5,66.5 C 1065.14,66.4802 1066.48,67.1468 1067.5,68.5C 1068.09,68.2907 1068.59,67.9574 1069,67.5C 1071.31,70.5393 1073.15,73.3726 1074.5,76C 1073.83,76.3333 1073.17,76.6667 1072.5,77C 1075.17,78.6667 1075.17,80.3333 1072.5,82C 1073.65,93.4238 1073.82,104.924 1073,116.5C 1069.2,126.248 1065.2,135.914 1061,145.5C 1060.62,128.821 1059.96,112.155 1059,95.5C 1051.75,86.4718 1051.91,77.6385 1059.5,69C 1059.17,68.6667 1058.83,68.3333 1058.5,68C 1059.67,67.6466 1060.84,67.8132 1062,68.5C 1063.03,68.1639 1063.53,67.4972 1063.5,66.5 Z"/></g>
<g><path style="opacity:0.863" fill="#0072d8" d="M 252.5,67.5 C 253.552,67.3505 254.552,67.5172 255.5,68C 251.917,69.6966 251.584,71.8633 254.5,74.5C 254.457,76.5611 253.791,78.7278 252.5,81C 253.041,83.8646 251.707,85.8646 248.5,87C 249.793,87.49 251.127,87.6567 252.5,87.5C 252.392,92.8699 252.725,98.2032 253.5,103.5C 250.626,103.549 247.792,103.216 245,102.5C 240.672,103.415 236.672,104.415 233,105.5C 232.689,103.444 232.189,101.444 231.5,99.5C 231.642,95.6215 231.642,92.1215 231.5,89C 232.218,87.0126 233.218,85.1792 234.5,83.5C 234.519,81.8945 234.353,80.2278 234,78.5C 234.414,78.9574 234.914,79.2907 235.5,79.5C 238.155,77.149 240.822,74.149 243.5,70.5C 246.142,68.8901 248.809,68.3901 251.5,69C 252.056,68.6174 252.389,68.1174 252.5,67.5 Z"/></g>
<g><path style="opacity:0.86" fill="#0072d8" d="M 388.5,67.5 C 389.552,67.3505 390.552,67.5172 391.5,68C 387.917,69.6966 387.584,71.8633 390.5,74.5C 390.457,76.5611 389.791,78.7278 388.5,81C 388.957,81.414 389.291,81.914 389.5,82.5C 388.352,84.1487 387.019,85.6487 385.5,87C 386.448,87.4828 387.448,87.6495 388.5,87.5C 388.392,92.8699 388.725,98.2032 389.5,103.5C 386.626,103.549 383.792,103.216 381,102.5C 376.672,103.415 372.672,104.415 369,105.5C 368.689,103.444 368.189,101.444 367.5,99.5C 367.642,95.6215 367.642,92.1215 367.5,89C 368.218,87.0126 369.218,85.1792 370.5,83.5C 370.167,82.1667 369.833,80.8333 369.5,79.5C 370.274,78.2888 371.107,78.2888 372,79.5C 374.358,74.8413 378.358,71.1746 384,68.5C 385.915,69.9156 387.415,69.5822 388.5,67.5 Z"/></g>
<g><path style="opacity:0.904" fill="#0072d8" d="M 528.5,67.5 C 529.481,69.3092 530.981,70.6426 533,71.5C 533.333,72.5 533.667,73.5 534,74.5C 534.19,80.4155 534.69,86.2488 535.5,92C 534.81,116.463 534.643,141.296 535,166.5C 534.829,161.248 535.996,156.415 538.5,152C 537.54,150.581 536.707,149.081 536,147.5C 535.172,142.798 535.338,138.131 536.5,133.5C 540.399,135.68 542.565,139.013 543,143.5C 543.667,149.5 543.667,155.5 543,161.5C 540.794,168.603 535.961,171.77 528.5,171C 522.118,168.181 519.785,163.348 521.5,156.5C 515.802,158.017 510.968,161.017 507,165.5C 506.333,158.833 506.333,152.167 507,145.5C 508.99,142.512 511.323,139.845 514,137.5C 515.507,138.535 517.007,138.368 518.5,137C 518.167,136.667 517.833,136.333 517.5,136C 519.091,133.614 520.091,130.947 520.5,128C 520.192,123.745 519.859,119.411 519.5,115C 519.905,114.055 520.572,113.388 521.5,113C 520.541,111.293 519.875,109.459 519.5,107.5C 520.526,98.5531 520.526,89.3864 519.5,80C 521.569,79.6758 521.902,78.8425 520.5,77.5C 521.194,74.9124 522.36,72.579 524,70.5C 524.667,69.1667 525.333,69.1667 526,70.5C 527.417,69.9221 528.25,68.9221 528.5,67.5 Z"/></g>
<g><path style="opacity:0.899" fill="#0072d8" d="M 983.5,67.5 C 987.43,69.84 989.763,73.34 990.5,78C 990.566,108.644 990.4,139.477 990,170.5C 985.782,171.91 982.116,170.91 979,167.5C 977.241,164.036 976.074,160.37 975.5,156.5C 970.341,158.489 965.841,161.489 962,165.5C 961.833,158.496 962.166,151.496 963,144.5C 964.649,142.35 966.482,140.35 968.5,138.5C 969.732,137.855 971.065,137.689 972.5,138C 973.833,137.333 973.833,136.667 972.5,136C 973.91,135.632 974.91,134.799 975.5,133.5C 975.831,115.99 975.831,98.157 975.5,80C 976.576,74.6505 979.243,70.4838 983.5,67.5 Z"/></g>
<g><path style="opacity:0.901" fill="#0072d8" d="M 714.5,123.5 C 714.066,116.082 714.066,108.915 714.5,102C 713.773,100.601 713.273,99.1012 713,97.5C 712.667,97.8333 712.333,98.1667 712,98.5C 710.5,97.3333 709,96.1667 707.5,95C 707.833,94.6667 708.167,94.3333 708.5,94C 707.426,93.2613 706.759,92.2613 706.5,91C 707.615,89.7651 707.615,88.5984 706.5,87.5C 708.973,85.9019 708.973,84.4019 706.5,83C 707.039,79.7261 708.206,76.5594 710,73.5C 710.333,73.8333 710.667,74.1667 711,74.5C 711.667,73.1667 712.333,71.8333 713,70.5C 714.558,71.3452 715.558,70.6785 716,68.5C 718.675,70.4461 721.508,72.1127 724.5,73.5C 727.286,77.3575 728.786,81.6908 729,86.5C 729.667,113.5 729.667,140.5 729,167.5C 724.667,174.167 720.333,174.167 716,167.5C 714.445,157.821 714.279,148.154 715.5,138.5C 713.619,134.814 713.619,130.981 715.5,127C 715.347,125.791 715.014,124.625 714.5,123.5 Z"/></g>
<g><path style="opacity:0.914" fill="#0072d8" d="M 576.5,69.5 C 577.397,70.5981 578.23,70.5981 579,69.5C 586.087,74.3066 591.754,80.9733 596,89.5C 597.577,114.807 597.91,140.14 597,165.5C 595.826,171.178 592.326,173.511 586.5,172.5C 586.5,171.5 586.5,170.5 586.5,169.5C 585.448,169.649 584.448,169.483 583.5,169C 584.665,167.132 584.332,165.298 582.5,163.5C 584.518,160.791 584.518,158.291 582.5,156C 583.096,152.282 583.762,148.616 584.5,145C 583.167,143.333 583.167,141.667 584.5,140C 582.245,137.143 582.245,134.143 584.5,131C 582.849,126.699 582.516,122.366 583.5,118C 581.479,115.026 581.479,111.86 583.5,108.5C 583.244,103.886 583.077,98.8857 583,93.5C 582.121,90.6537 580.454,89.987 578,91.5C 577.716,89.1144 576.716,88.4477 575,89.5C 574.529,87.7536 573.862,86.087 573,84.5C 570.817,87.5308 567.984,89.5308 564.5,90.5C 564.916,93.4059 565.582,96.2393 566.5,99C 564.91,102.295 563.744,105.795 563,109.5C 562.667,128.833 562.333,148.167 562,167.5C 560.226,172.218 557.06,173.551 552.5,171.5C 550.806,169.446 549.639,167.112 549,164.5C 548.788,144.497 549.121,124.497 550,104.5C 551.047,102.238 552.213,100.071 553.5,98C 552.793,95.46 551.127,94.2933 548.5,94.5C 550.119,84.6957 555.452,77.529 564.5,73C 567.5,72.3333 570.5,72.3333 573.5,73C 572.304,73.6543 572.304,74.1543 573.5,74.5C 574.763,72.9713 575.763,71.3046 576.5,69.5 Z"/></g>
<g><path style="opacity:0.889" fill="#0072d8" d="M 1102.5,95.5 C 1100.22,95.8634 1099.56,96.8634 1100.5,98.5C 1099.39,100.385 1098.56,102.385 1098,104.5C 1097.67,104.167 1097.33,103.833 1097,103.5C 1096.91,106.007 1096.07,108.174 1094.5,110C 1095.63,111.016 1095.3,111.683 1093.5,112C 1094.03,114.73 1093.03,117.397 1090.5,120C 1090.36,124.033 1088.69,127.7 1085.5,131C 1086.43,134.087 1085.76,136.92 1083.5,139.5C 1084.9,140.842 1084.57,141.676 1082.5,142C 1082.96,142.414 1083.29,142.914 1083.5,143.5C 1082.37,146.453 1081.04,149.286 1079.5,152C 1079.33,154.26 1079.33,156.593 1079.5,159C 1076.54,159.84 1076.2,160.84 1078.5,162C 1077.12,166.032 1074.96,169.532 1072,172.5C 1071.74,174.991 1071.91,177.491 1072.5,180C 1072.69,181.973 1072.02,183.473 1070.5,184.5C 1069.68,181.553 1069.18,178.553 1069,175.5C 1068.78,176.938 1068.28,178.271 1067.5,179.5C 1066.68,176.893 1066.18,174.226 1066,171.5C 1064.97,168.915 1063.3,166.248 1061,163.5C 1060.33,161.167 1060.33,158.833 1061,156.5C 1069.58,136.559 1076.42,118.059 1081.5,101C 1082.83,98.6667 1084.17,96.3333 1085.5,94C 1085.74,92.2157 1085.74,90.3823 1085.5,88.5C 1087.76,88.2249 1088.09,87.2249 1086.5,85.5C 1088.54,84.4968 1088.88,83.1634 1087.5,81.5C 1088.86,79.5732 1089.86,77.5732 1090.5,75.5C 1091.05,77.6569 1092.05,77.4903 1093.5,75C 1092.17,73.1598 1092.33,72.6598 1094,73.5C 1094.36,70.4557 1095.03,70.1224 1096,72.5C 1096.5,71.3333 1097.33,70.5 1098.5,70C 1100.83,69.3333 1103.17,69.3333 1105.5,70C 1106.8,70.804 1107.47,71.9707 1107.5,73.5C 1105.79,78.6427 1105.12,83.6427 1105.5,88.5C 1106.67,86.8333 1107.83,85.1667 1109,83.5C 1109.67,110.167 1109.67,136.833 1109,163.5C 1104.09,171.417 1099.26,171.25 1094.5,163C 1095.46,150.216 1095.46,137.216 1094.5,124C 1095.22,120.539 1095.72,117.039 1096,113.5C 1098.67,107.655 1100.84,101.655 1102.5,95.5 Z M 1102.5,95.5 C 1101.17,94.5 1101.17,93.5 1102.5,92.5C 1103.31,91.5707 1104.15,90.5707 1105,89.5C 1105.01,91.8212 1104.17,93.8212 1102.5,95.5 Z"/></g>
<g><path style="opacity:0.888" fill="#0072d8" d="M 1197.5,69.5 C 1199.94,69.317 1202.1,69.9837 1204,71.5C 1204.67,76.1667 1204.67,80.8333 1204,85.5C 1199.27,86.1889 1194.77,87.6889 1190.5,90C 1188.92,91.828 1187.59,93.828 1186.5,96C 1185.17,96.6667 1183.83,96.6667 1182.5,96C 1179.64,89.9386 1180.14,84.1053 1184,78.5C 1187.9,74.3987 1192.4,71.3987 1197.5,69.5 Z"/></g>
<g><path style="opacity:0.915" fill="#0072d8" d="M 498.5,72.5 C 500.593,73.0576 502.093,74.3909 503,76.5C 503.45,78.519 504.283,80.3523 505.5,82C 504.452,83.7562 504.452,85.5896 505.5,87.5C 504.317,93.5589 503.317,99.5589 502.5,105.5C 502.519,112.869 503.185,120.369 504.5,128C 503.833,128.333 503.167,128.667 502.5,129C 503.141,131.578 503.475,134.245 503.5,137C 503.025,148.178 502.359,159.345 501.5,170.5C 495.536,172.719 491.702,170.719 490,164.5C 489.667,143.833 489.333,123.167 489,102.5C 488.223,98.7227 486.556,95.3893 484,92.5C 481.362,85.2982 482.528,78.7982 487.5,73C 490.376,70.3355 493.21,70.1689 496,72.5C 496.333,71.8333 496.667,71.1667 497,70.5C 497.278,71.4158 497.778,72.0825 498.5,72.5 Z"/></g>
<g><path style="opacity:0.188" fill="#0072d8" d="M 498.5,72.5 C 498.369,71.7611 498.536,71.0944 499,70.5C 499.692,71.4368 499.525,72.1034 498.5,72.5 Z"/></g>
<g><path style="opacity:0.896" fill="#0072d8" d="M 665.5,70.5 C 669.684,69.7036 672.85,71.037 675,74.5C 676.151,85.7185 676.317,96.7185 675.5,107.5C 676.04,108.748 676.707,109.915 677.5,111C 676.833,111.333 676.167,111.667 675.5,112C 676.631,118.477 676.631,125.143 675.5,132C 677.414,135.336 677.747,138.669 676.5,142C 683.047,149.315 684.214,157.482 680,166.5C 676.053,170.063 673.387,174.396 672,179.5C 670.989,180.337 669.822,180.67 668.5,180.5C 668.843,177.144 667.843,175.144 665.5,174.5C 666.376,173.749 667.376,173.249 668.5,173C 667.167,172.333 665.833,171.667 664.5,171C 664.833,170.667 665.167,170.333 665.5,170C 662.959,167.591 661.626,164.924 661.5,162C 662.266,133.647 662.766,104.813 663,75.5C 663.847,73.8068 664.68,72.1401 665.5,70.5 Z"/></g>
<g><path style="opacity:0.904" fill="#0072d8" d="M 844.5,174.5 C 843.167,174.833 843.167,175.167 844.5,175.5C 844.326,178.763 842.659,180.43 839.5,180.5C 839.843,177.144 838.843,175.144 836.5,174.5C 838.739,173.334 838.739,172.001 836.5,170.5C 834.612,167.949 833.278,165.115 832.5,162C 833.266,133.647 833.766,104.813 834,75.5C 836.286,70.0533 839.952,69.0533 845,72.5C 845.333,73.5 845.667,74.5 846,75.5C 846.188,81.7482 846.688,87.9149 847.5,94C 847.261,110.358 847.261,126.358 847.5,142C 853.476,148.54 854.976,156.04 852,164.5C 850.5,167.333 848.333,169.5 845.5,171C 845.833,171.333 846.167,171.667 846.5,172C 845.244,172.417 844.577,173.25 844.5,174.5 Z"/></g>
<g><path style="opacity:0.893" fill="#0072d8" d="M 947.5,70.5 C 949.821,71.6249 952.154,71.7916 954.5,71C 955.252,72.7584 956.086,74.9251 957,77.5C 957.333,76.5 957.667,75.5 958,74.5C 958.314,76.8689 959.148,79.0356 960.5,81C 959.795,82.4219 959.461,83.7553 959.5,85C 960.308,85.3076 960.975,85.8076 961.5,86.5C 960.187,89.2477 959.187,92.081 958.5,95C 959.156,109.487 959.489,124.32 959.5,139.5C 958.8,149.488 958.3,159.488 958,169.5C 953.021,172.667 949.021,171.667 946,166.5C 944.856,143.851 944.189,121.184 944,98.5C 940.023,94.9098 938.19,90.4098 938.5,85C 938.353,78.1129 941.353,73.2795 947.5,70.5 Z"/></g>
<g><path style="opacity:0.871" fill="#0072d8" d="M 256.5,71.5 C 260.796,72.3204 264.963,73.6538 269,75.5C 271.553,74.7771 273.72,73.4438 275.5,71.5C 279.178,79.6192 276.845,85.4525 268.5,89C 263.443,89.7216 259.61,87.8883 257,83.5C 256.501,79.5138 256.334,75.5138 256.5,71.5 Z"/></g>
<g><path style="opacity:0.933" fill="#0072d8" d="M 318.5,71.5 C 324.387,71.2212 328.22,73.8879 330,79.5C 331.926,108.165 331.926,136.832 330,165.5C 327.934,171.115 324.1,172.781 318.5,170.5C 317.5,147.176 317.167,123.843 317.5,100.5C 316.448,100.649 315.448,100.483 314.5,100C 313.122,98.2866 311.455,96.9533 309.5,96C 309.833,95.6667 310.167,95.3333 310.5,95C 309.572,94.6121 308.905,93.9454 308.5,93C 309.615,91.7651 309.615,90.5984 308.5,89.5C 309.373,84.4013 311.206,79.4013 314,74.5C 315.652,73.6006 317.152,72.6006 318.5,71.5 Z"/></g>
<g><path style="opacity:0.875" fill="#0072d8" d="M 392.5,72.5 C 392.917,71.8761 393.584,71.5427 394.5,71.5C 398.167,72.8333 401.833,74.1667 405.5,75.5C 407.747,74.5944 409.747,73.2611 411.5,71.5C 415.485,79.7142 413.151,85.5475 404.5,89C 399.443,89.7216 395.61,87.8883 393,83.5C 392.641,79.5357 392.474,75.869 392.5,72.5 Z"/></g>
<g><path style="opacity:0.941" fill="#0072d8" d="M 687.5,71.5 C 691.287,70.8144 694.454,71.8144 697,74.5C 698.291,97.1166 698.958,119.783 699,142.5C 699.981,145.655 701.315,145.988 703,143.5C 704.796,145.146 706.296,147.646 707.5,151C 706.311,157.116 704.311,162.95 701.5,168.5C 694.914,173.201 689.747,171.868 686,164.5C 685.333,134.833 685.333,105.167 686,75.5C 686.41,74.0993 686.91,72.766 687.5,71.5 Z"/></g>
<g><path style="opacity:0.928" fill="#0072d8" d="M 808.5,71.5 C 816.195,71.0227 820.362,74.6893 821,82.5C 821.667,109.5 821.667,136.5 821,163.5C 819.243,171.488 814.91,173.488 808,169.5C 808.126,147.169 808.126,124.835 808,102.5C 805.197,100.372 802.364,98.2058 799.5,96C 799.684,93.7237 799.684,91.3904 799.5,89C 799.759,87.7387 800.426,86.7387 801.5,86C 800.692,85.6924 800.025,85.1924 799.5,84.5C 801.471,81.7644 802.971,78.7644 804,75.5C 805.397,73.9297 806.897,72.5964 808.5,71.5 Z"/></g>
<g><path style="opacity:0.916" fill="#0072d8" d="M 858.5,71.5 C 860.857,71.3367 863.19,71.5034 865.5,72C 866.701,72.9025 867.535,74.0692 868,75.5C 869.23,97.8069 869.896,120.14 870,142.5C 870.915,143.328 871.581,144.328 872,145.5C 873.16,143.203 874.16,143.536 875,146.5C 875.333,146.167 875.667,145.833 876,145.5C 876.454,147.536 877.287,149.37 878.5,151C 876.855,152.032 876.522,153.199 877.5,154.5C 876.41,160.288 874.077,165.454 870.5,170C 864.082,172.922 859.582,171.088 857,164.5C 855.8,136.174 855.467,107.841 856,79.5C 856.272,76.6181 857.106,73.9514 858.5,71.5 Z"/></g>
<g><path style="opacity:0.905" fill="#0072d8" d="M 622.5,72.5 C 623.5,72.5 624.5,72.5 625.5,72.5C 624.737,77.5771 624.404,82.5771 624.5,87.5C 621.856,88.3958 619.19,89.2291 616.5,90C 614.333,93.5 611.5,96.3333 608,98.5C 605.966,96.3022 605.132,93.6355 605.5,90.5C 605.181,84.9709 607.181,80.4709 611.5,77C 615.157,75.1776 618.824,73.6776 622.5,72.5 Z"/></g>
<g><path style="opacity:0.909" fill="#0072d8" d="M 758.5,72.5 C 761.365,72.0548 763.865,72.7215 766,74.5C 767.204,78.7159 767.87,83.0492 768,87.5C 768.667,113.5 768.667,139.5 768,165.5C 766.778,171.527 763.278,173.527 757.5,171.5C 756.416,170.335 755.583,169.002 755,167.5C 754.333,137.833 754.333,108.167 755,78.5C 755.424,75.9746 756.59,73.9746 758.5,72.5 Z"/></g>
<g><path style="opacity:0.889" fill="#0072d8" d="M 1208.5,72.5 C 1214.89,72.7021 1220.05,75.3687 1224,80.5C 1225.46,86.129 1226.96,91.629 1228.5,97C 1227.83,98 1227.17,99 1226.5,100C 1227.53,103.789 1227.53,107.789 1226.5,112C 1228.89,113.309 1228.89,114.309 1226.5,115C 1226.88,121.007 1226.88,126.84 1226.5,132.5C 1227.17,135.167 1227.83,137.833 1228.5,140.5C 1227.83,141.5 1227.17,142.5 1226.5,143.5C 1227.17,143.833 1227.83,144.167 1228.5,144.5C 1227.69,145.216 1227.02,146.05 1226.5,147C 1227.5,150.651 1227.84,154.484 1227.5,158.5C 1227.29,159.994 1226.62,161.161 1225.5,162C 1226.52,163.049 1226.68,164.216 1226,165.5C 1224.74,168.757 1222.74,171.423 1220,173.5C 1215.74,172.218 1212.91,169.051 1211.5,164C 1211.48,148.706 1211.81,133.039 1212.5,117C 1211.83,115.667 1211.17,114.333 1210.5,113C 1212.35,105.298 1212.85,97.4644 1212,89.5C 1211.31,88.6433 1210.48,87.9767 1209.5,87.5C 1208.51,82.544 1208.17,77.544 1208.5,72.5 Z"/></g>
<g><path style="opacity:0.92" fill="#0072d8" d="M 345.5,73.5 C 348.187,73.3359 350.854,73.5026 353.5,74C 354.701,74.9025 355.535,76.0692 356,77.5C 356.333,98.8333 356.667,120.167 357,141.5C 359.089,142.991 361.089,144.658 363,146.5C 364.784,154.024 364.117,161.357 361,168.5C 352.716,176.172 347.05,174.505 344,163.5C 343.333,134.833 343.333,106.167 344,77.5C 344.791,76.255 345.291,74.9217 345.5,73.5 Z"/></g>
<g><path style="opacity:0.949" fill="#0072d8" d="M 628.5,73.5 C 638.829,72.6714 645.995,77.0048 650,86.5C 650.085,114.166 649.752,141.833 649,169.5C 645.138,174.709 641.472,174.709 638,169.5C 637.667,144.167 637.333,118.833 637,93.5C 635.81,89.5591 633.143,87.2257 629,86.5C 628.501,82.1794 628.334,77.8461 628.5,73.5 Z"/></g>
<g><path style="opacity:0.88" fill="#0072d8" d="M 740.5,73.5 C 741.822,73.33 742.989,73.6634 744,74.5C 746.824,86.1309 749.491,97.7976 752,109.5C 752.667,124.5 752.667,139.5 752,154.5C 748.55,140.93 745.217,127.264 742,113.5C 739.127,126.661 735.793,139.661 732,152.5C 729.013,125.456 731.846,99.1222 740.5,73.5 Z"/></g>
<g><path style="opacity:0.919" fill="#0072d8" d="M 448.5,159.5 C 449.931,161.189 450.764,163.189 451,165.5C 452.236,163.693 452.57,161.693 452,159.5C 452.333,159.833 452.667,160.167 453,160.5C 455.739,157.882 458.573,155.382 461.5,153C 460.903,151.938 460.57,150.772 460.5,149.5C 461.022,145.126 461.689,140.793 462.5,136.5C 461.739,131.458 461.739,126.291 462.5,121C 460.219,119.518 460.219,117.851 462.5,116C 461.813,113.768 461.479,111.602 461.5,109.5C 462.309,99.5469 462.809,89.5469 463,79.5C 465.905,73.5702 469.905,72.9036 475,77.5C 476.599,102.802 476.932,128.135 476,153.5C 475.296,159.573 472.962,164.906 469,169.5C 464.377,174.021 458.877,175.521 452.5,174C 451.299,173.097 450.465,171.931 450,170.5C 449.5,171.5 449,172.5 448.5,173.5C 441.289,175.649 435.455,173.649 431,167.5C 428.073,163.644 426.239,159.31 425.5,154.5C 426.265,147.195 426.765,139.862 427,132.5C 427.593,128.648 428.76,124.981 430.5,121.5C 429.051,118.268 427.884,114.935 427,111.5C 426.333,102.167 426.333,92.8333 427,83.5C 429.26,75.4809 434.093,73.1475 441.5,76.5C 446.054,80.9066 447.554,86.2399 446,92.5C 444.369,96.2892 442.536,99.9559 440.5,103.5C 441.034,107.37 442.2,111.037 444,114.5C 446.566,117.066 449.066,119.566 451.5,122C 447.304,124.531 444.138,128.031 442,132.5C 439.669,140.454 439.336,148.454 441,156.5C 441.667,157.167 442.333,157.833 443,158.5C 444.71,157.055 446.544,156.222 448.5,156C 445.93,157.349 445.93,158.516 448.5,159.5 Z"/></g>
<g><path style="opacity:0.88" fill="#0072d8" d="M 900.5,74.5 C 902.167,74.5 903.833,74.5 905.5,74.5C 905.5,78.8333 905.5,83.1667 905.5,87.5C 899.8,87.4689 894.967,89.4689 891,93.5C 888.541,103.692 886.041,103.859 883.5,94C 884.419,83.2535 890.086,76.7535 900.5,74.5 Z"/></g>
<g><path style="opacity:0.188" fill="#0072d8" d="M 1034.5,74.5 C 1035.83,75.1667 1035.83,75.1667 1034.5,74.5 Z"/></g>
<g><path style="opacity:0.882" fill="#0072d8" d="M 1030.5,123.5 C 1030.52,118.8 1030.52,113.967 1030.5,109C 1033.17,108.333 1033.17,107.667 1030.5,107C 1031.39,101.33 1031.39,95.8303 1030.5,90.5C 1029.67,89.5853 1028.67,88.9186 1027.5,88.5C 1026.51,84.2172 1026.17,79.8839 1026.5,75.5C 1029.17,75.5 1031.83,75.5 1034.5,75.5C 1035.57,76.6921 1036.4,76.3588 1037,74.5C 1039.67,78.5062 1042.67,81.5062 1046,83.5C 1046.37,85.6982 1046.87,87.8649 1047.5,90C 1046.79,92.142 1047.13,94.3087 1048.5,96.5C 1047.96,97.7481 1047.29,98.9148 1046.5,100C 1047.23,113.577 1047.57,127.743 1047.5,142.5C 1046.74,149.138 1046.24,155.804 1046,162.5C 1045.22,171.979 1040.38,175.479 1031.5,173C 1029.91,170.782 1027.91,169.115 1025.5,168C 1027.77,165.968 1027.1,164.635 1023.5,164C 1024.67,162.594 1024.33,161.428 1022.5,160.5C 1023.09,158.618 1023.76,156.785 1024.5,155C 1024.17,154.667 1023.83,154.333 1023.5,154C 1025.69,153.323 1026.02,152.156 1024.5,150.5C 1024.85,149.304 1025.35,149.304 1026,150.5C 1026.33,149.167 1026.67,147.833 1027,146.5C 1027.91,147.654 1028.75,147.487 1029.5,146C 1028.91,144.127 1029.58,142.46 1031.5,141C 1029.56,136.837 1029.56,132.837 1031.5,129C 1031.61,127.253 1031.28,125.42 1030.5,123.5 Z"/></g>
<g><path style="opacity:0.188" fill="#0072d8" d="M 1090.5,74.5 C 1091.83,75.1667 1091.83,75.1667 1090.5,74.5 Z"/></g>
<g><path style="opacity:0.921" fill="#0072d8" d="M 1144.5,159.5 C 1145.93,161.189 1146.76,163.189 1147,165.5C 1148.77,164.01 1148.94,162.343 1147.5,160.5C 1150.89,158.149 1154.22,155.816 1157.5,153.5C 1156.72,147.816 1157.05,142.15 1158.5,136.5C 1157.74,131.458 1157.74,126.291 1158.5,121C 1156.22,119.518 1156.22,117.851 1158.5,116C 1157.81,113.768 1157.48,111.602 1157.5,109.5C 1158.31,99.5469 1158.81,89.5469 1159,79.5C 1161.91,73.5702 1165.91,72.9036 1171,77.5C 1171.33,79.5 1171.67,81.5 1172,83.5C 1172.67,107.167 1172.67,130.833 1172,154.5C 1170.51,163.637 1165.67,170.137 1157.5,174C 1153.39,175.143 1149.72,174.477 1146.5,172C 1147.52,170.951 1147.68,169.784 1147,168.5C 1145.08,173.902 1141.24,175.735 1135.5,174C 1127.78,169.737 1123.11,163.237 1121.5,154.5C 1122.26,147.529 1122.76,140.529 1123,133.5C 1123.3,129.239 1124.47,125.239 1126.5,121.5C 1124.76,118.019 1123.59,114.352 1123,110.5C 1122.1,100.439 1122.44,90.4394 1124,80.5C 1127.69,74.3795 1132.52,73.2128 1138.5,77C 1142.12,81.5611 1143.29,86.7277 1142,92.5C 1140.37,96.2892 1138.54,99.9559 1136.5,103.5C 1137.03,107.37 1138.2,111.037 1140,114.5C 1142.57,117.066 1145.07,119.566 1147.5,122C 1143.3,124.531 1140.14,128.031 1138,132.5C 1135.67,140.454 1135.34,148.454 1137,156.5C 1137.67,157.167 1138.33,157.833 1139,158.5C 1140.71,157.055 1142.54,156.222 1144.5,156C 1141.93,157.349 1141.93,158.516 1144.5,159.5 Z"/></g>
<g><path style="opacity:0.879" fill="#0072d8" d="M 1013.5,75.5 C 1016.5,75.5 1019.5,75.5 1022.5,75.5C 1022.67,79.8461 1022.5,84.1794 1022,88.5C 1013.89,87.9021 1008.56,91.5687 1006,99.5C 1003.55,101.013 1001.88,100.346 1001,97.5C 999.27,86.61 1003.44,79.2767 1013.5,75.5 Z"/></g>
<g><path style="opacity:0.188" fill="#0072d8" d="M 1085.5,88.5 C 1084.83,87.1667 1084.83,87.1667 1085.5,88.5 Z"/></g>
<g><path style="opacity:0.924" fill="#0072d8" d="M 256.5,89.5 C 259.911,90.3597 263.244,91.5263 266.5,93C 269.333,95.8333 272.167,98.6667 275,101.5C 275.92,104.101 276.587,106.768 277,109.5C 277.667,125.5 277.667,141.5 277,157.5C 276.514,162.641 274.348,166.808 270.5,170C 267.366,170.79 264.366,170.457 261.5,169C 259.113,166.04 257.113,163.374 255.5,161C 255.833,160.667 256.167,160.333 256.5,160C 253.483,154.446 254.149,149.446 258.5,145C 257.332,143.129 257.832,141.629 260,140.5C 260.308,141.308 260.808,141.975 261.5,142.5C 262.666,132.183 262.832,121.849 262,111.5C 261,109.167 259.333,107.5 257,106.5C 256.501,100.843 256.334,95.1764 256.5,89.5 Z"/></g>
<g><path style="opacity:0.923" fill="#0072d8" d="M 393.5,143.5 C 394.469,142.691 395.302,141.691 396,140.5C 396.308,141.308 396.808,141.975 397.5,142.5C 398.666,132.183 398.832,121.849 398,111.5C 397,109.167 395.333,107.5 393,106.5C 392.501,100.843 392.334,95.1764 392.5,89.5C 403.036,91.8703 409.869,98.2037 413,108.5C 413.667,124.833 413.667,141.167 413,157.5C 412.669,161.831 411.169,165.664 408.5,169C 400.385,172.105 395.385,169.772 393.5,162C 389.275,155.869 389.608,150.035 394.5,144.5C 394.376,143.893 394.043,143.56 393.5,143.5 Z"/></g>
<g><path style="opacity:0.888" fill="#0072d8" d="M 898.5,147.5 C 898.842,148.338 899.508,148.672 900.5,148.5C 901.5,149.167 902.5,149.833 903.5,150.5C 902.167,150.833 902.167,151.167 903.5,151.5C 904.164,153.867 905.497,155.867 907.5,157.5C 906.673,159.941 906.673,162.107 907.5,164C 904.778,169.995 901.612,176.161 898,182.5C 895.767,180.522 894.6,178.355 894.5,176C 886.571,172.997 883.071,167.163 884,158.5C 883.179,145.799 883.512,133.132 885,120.5C 889.982,108.234 897.815,105.734 908.5,113C 911.388,116.222 913.888,119.722 916,123.5C 916.832,132.518 916.665,141.518 915.5,150.5C 911.944,142.387 908.111,134.387 904,126.5C 902.194,123.316 900.194,122.983 898,125.5C 897.178,133.012 897.345,140.345 898.5,147.5 Z"/></g>
<g><path style="opacity:0.831" fill="#0072d8" d="M 289.5,115.5 C 292.545,115.704 295.379,115.704 298,115.5C 298.626,117.991 299.459,117.991 300.5,115.5C 300.833,116.167 301.167,116.833 301.5,117.5C 302.086,117.291 302.586,116.957 303,116.5C 306.149,121.594 309.482,126.594 313,131.5C 313.832,140.518 313.665,149.518 312.5,158.5C 309.43,154.036 306.597,149.369 304,144.5C 302.989,143.663 301.822,143.33 300.5,143.5C 299.683,140.521 298.849,137.521 298,134.5C 297.667,134.833 297.333,135.167 297,135.5C 292.073,131.178 288.907,125.678 287.5,119C 287.862,117.566 288.528,116.399 289.5,115.5 Z"/></g>
<g><path style="opacity:0.846" fill="#0072d8" d="M 790.5,116.5 C 791.189,117.774 792.023,117.774 793,116.5C 793.66,118.324 794.827,119.657 796.5,120.5C 798.404,123.966 800.57,127.299 803,130.5C 803.832,139.851 803.665,149.184 802.5,158.5C 799.5,151.309 795.166,145.142 789.5,140C 789.833,139.667 790.167,139.333 790.5,139C 789.135,135.974 786.801,133.974 783.5,133C 783.025,129.774 781.358,126.774 778.5,124C 778.833,123.667 779.167,123.333 779.5,123C 777.006,120.577 777.006,118.244 779.5,116C 783.255,115.245 786.922,115.411 790.5,116.5 Z"/></g>
<g><path style="opacity:0.125" fill="#0072d8" d="M 790.5,115.5 C 791.833,116.167 791.833,116.167 790.5,115.5 Z"/></g>
<g><path style="opacity:0.125" fill="#0072d8" d="M 796.5,119.5 C 797.833,120.167 797.833,120.167 796.5,119.5 Z"/></g>
<g><path style="opacity:0.157" fill="#0072d8" d="M 1030.5,123.5 C 1029.47,123.103 1029.31,122.437 1030,121.5C 1030.46,122.094 1030.63,122.761 1030.5,123.5 Z"/></g>
<g><path style="opacity:0.063" fill="#0072d8" d="M 714.5,123.5 C 713.833,124.167 713.833,124.167 714.5,123.5 Z"/></g>
<g><path style="opacity:0.864" fill="#0072d8" d="M 991.5,133.5 C 994.112,134.277 995.945,135.944 997,138.5C 999.788,146.742 1000.12,155.076 998,163.5C 997.21,167.128 995.043,169.128 991.5,169.5C 991.075,163.507 991.742,157.674 993.5,152C 991.666,146.055 991,139.888 991.5,133.5 Z"/></g>
<g><path style="opacity:0.125" fill="#0072d8" d="M 255.5,143.5 C 256.833,144.167 256.833,144.167 255.5,143.5 Z"/></g>
<g><path style="opacity:0.094" fill="#0072d8" d="M 393.5,143.5 C 393.103,144.525 392.437,144.692 391.5,144C 392.094,143.536 392.761,143.369 393.5,143.5 Z"/></g>
<g><path style="opacity:0.188" fill="#0072d8" d="M 898.5,146.5 C 899.833,147.167 899.833,147.167 898.5,146.5 Z"/></g>
<g><path style="opacity:0.063" fill="#0072d8" d="M 900.5,148.5 C 900.369,147.761 900.536,147.094 901,146.5C 901.692,147.437 901.525,148.103 900.5,148.5 Z"/></g>
<g><path style="opacity:0.125" fill="#0072d8" d="M 903.5,150.5 C 904.833,151.167 904.833,151.167 903.5,150.5 Z"/></g>
<g><path style="opacity:0.125" fill="#0072d8" d="M 904.5,152.5 C 905.833,153.167 905.833,153.167 904.5,152.5 Z"/></g>
<g><path style="opacity:0.647" fill="#4a4a4a" d="M 77.5,11.5 C 122.694,8.74716 154.36,27.9138 172.5,69C 185.398,113.31 173.065,148.644 135.5,175C 94.6217,196.066 57.7884,190.566 25,158.5C 1.26538,129.871 -3.73462,98.204 10,63.5C 23.9658,35.0282 46.4658,17.6949 77.5,11.5 Z M 87.5,95.5 C 90.2282,95.1706 92.5615,95.8372 94.5,97.5C 95.4227,101.064 95.756,104.731 95.5,108.5C 91.8333,108.5 88.1667,108.5 84.5,108.5C 83.8392,103.684 84.8392,99.3508 87.5,95.5 Z M 26.5,64.5 C 29.4596,65.032 29.7929,65.6987 27.5,66.5C 27.1667,65.8333 26.8333,65.1667 26.5,64.5 Z M 44.5,42.5 C 44.8333,42.5 45.1667,42.5 45.5,42.5C 45.8333,43.1667 46.1667,43.8333 46.5,44.5C 45.1667,44.5 44.5,43.8333 44.5,42.5 Z"/></g>
<g><path style="opacity:0.995" fill="#f8f8f8" d="M 78.5,13.5 C 115.93,10.9652 144.763,25.2985 165,56.5C 182.234,91.3886 179.234,124.389 156,155.5C 127.989,184.793 94.8227,192.627 56.5,179C 13.4444,156.38 -2.72226,121.213 8,73.5C 20.4017,40.2517 43.9017,20.2517 78.5,13.5 Z M 87.5,95.5 C 90.2282,95.1706 92.5615,95.8372 94.5,97.5C 95.4227,101.064 95.756,104.731 95.5,108.5C 91.8333,108.5 88.1667,108.5 84.5,108.5C 83.8392,103.684 84.8392,99.3508 87.5,95.5 Z M 26.5,64.5 C 29.4596,65.032 29.7929,65.6987 27.5,66.5C 27.1667,65.8333 26.8333,65.1667 26.5,64.5 Z M 44.5,42.5 C 44.8333,42.5 45.1667,42.5 45.5,42.5C 45.8333,43.1667 46.1667,43.8333 46.5,44.5C 45.1667,44.5 44.5,43.8333 44.5,42.5 Z"/></g>
<g><path style="opacity:0.961" fill="#212140" d="M 115.5,149.5 C 116.833,149.5 118.167,149.5 119.5,149.5C 115.106,152.859 110.106,154.859 104.5,155.5C 106.65,154.33 108.984,153.33 111.5,152.5C 112.298,152.043 112.631,151.376 112.5,150.5C 113.609,150.443 114.609,150.11 115.5,149.5 Z"/></g>
<g><path style="opacity:1" fill="#17172e" d="M 64.5,151.5 C 77.4327,156.428 90.766,157.761 104.5,155.5C 104.082,156.222 103.416,156.722 102.5,157C 94.5,157.667 86.5,157.667 78.5,157C 73.3884,156.024 68.7217,154.191 64.5,151.5 Z"/></g>
<g><path style="opacity:0.878" fill="#363636" d="M 39.5,149.5 C 40.525,149.897 40.6917,150.563 40,151.5C 39.0228,152.774 38.1894,152.774 37.5,151.5C 38.1667,151.5 38.5,151.167 38.5,150.5C 39.1667,150.5 39.5,150.167 39.5,149.5 Z"/></g>
<g><path style="opacity:0.42" fill="#6c6c6c" d="M 39.5,149.5 C 38.8333,149.5 38.5,149.833 38.5,150.5C 37.8333,150.5 37.5,150.833 37.5,151.5C 36.5768,152.303 35.5768,152.47 34.5,152C 36.019,150.649 37.3523,149.149 38.5,147.5C 39.2975,147.957 39.6309,148.624 39.5,149.5 Z"/></g>
<g><path style="opacity:0.863" fill="#484848" d="M 144.5,144.5 C 144.832,146.791 145.666,149.124 147,151.5C 145.467,149.154 143.634,148.154 141.5,148.5C 142.524,147.148 143.524,145.815 144.5,144.5 Z"/></g>
<g><path style="opacity:0.863" fill="#2b2b2b" d="M 33.5,143.5 C 34.0431,143.56 34.3764,143.893 34.5,144.5C 29.8894,149.618 29.5561,149.285 33.5,143.5 Z"/></g>
<g><path style="opacity:1" fill="#1b1929" d="M 50.5,141.5 C 53.0892,142.419 55.0892,144.086 56.5,146.5C 53.9108,145.581 51.9108,143.914 50.5,141.5 Z"/></g>
<g><path style="opacity:0.525" fill="#676767" d="M 148.5,140.5 C 150.655,140.372 152.655,140.872 154.5,142C 153.376,142.249 152.376,142.749 151.5,143.5C 152.59,144.609 152.59,145.609 151.5,146.5C 150.451,144.472 149.451,142.472 148.5,140.5 Z"/></g>
<g><path style="opacity:0.573" fill="#555555" d="M 29.5,140.5 C 31.8963,141.828 31.8963,143.494 29.5,145.5C 29.0894,144.738 28.9227,143.738 29,142.5C 28.1887,143.96 27.3554,144.293 26.5,143.5C 27.3398,142.265 28.3398,141.265 29.5,140.5 Z"/></g>
<g><path style="opacity:0.651" fill="#827ec9" d="M 34.5,108.5 C 36.1449,112.727 37.6449,117.061 39,121.5C 39.8518,122.571 40.6851,123.571 41.5,124.5C 47.2847,136.45 56.2847,145.283 68.5,151C 75.727,153.141 83.0604,154.641 90.5,155.5C 98.0947,154.753 105.428,153.086 112.5,150.5C 112.631,151.376 112.298,152.043 111.5,152.5C 108.984,153.33 106.65,154.33 104.5,155.5C 90.766,157.761 77.4327,156.428 64.5,151.5C 61.2957,150.617 58.6291,148.95 56.5,146.5C 55.0892,144.086 53.0892,142.419 50.5,141.5C 46.4259,138.755 43.4259,135.088 41.5,130.5C 37.9596,123.546 35.6262,116.212 34.5,108.5 Z"/></g>
<g><path style="opacity:0.929" fill="#525252" d="M 21.5,134.5 C 27.7453,133.822 28.7453,135.489 24.5,139.5C 23.4937,139.062 23.4937,138.396 24.5,137.5C 23.0065,136.859 22.0065,135.859 21.5,134.5 Z"/></g>
<g><path style="opacity:0.894" fill="#4d4d4d" d="M 154.5,131.5 C 160.412,137.015 159.745,138.349 152.5,135.5C 153.376,134.749 154.376,134.249 155.5,134C 154.748,133.329 154.414,132.496 154.5,131.5 Z"/></g>
<g><path style="opacity:0.165" fill="#525252" d="M 157.5,127.5 C 159.288,126.378 161.288,126.211 163.5,127C 159.918,127.595 159.584,128.929 162.5,131C 160.203,130.888 158.536,129.722 157.5,127.5 Z"/></g>
<g><path style="opacity:0.922" fill="#434343" d="M 21.5,124.5 C 22.7736,125.189 22.7736,126.023 21.5,127C 22.624,127.249 23.624,127.749 24.5,128.5C 23.6086,129.59 22.6086,129.59 21.5,128.5C 20.6667,129.5 19.8333,130.5 19,131.5C 18.5078,130.451 18.6744,129.451 19.5,128.5C 18.8333,128.167 18.1667,127.833 17.5,127.5C 18.9014,126.479 20.2347,125.479 21.5,124.5 Z"/></g>
<g><path style="opacity:0.978" fill="#efeefa" d="M 136.5,116.5 C 137.402,118.341 138.736,119.674 140.5,120.5C 140.833,120.5 141.167,120.5 141.5,120.5C 136.261,133.362 127.594,143.029 115.5,149.5C 114.609,150.11 113.609,150.443 112.5,150.5C 105.428,153.086 98.0947,154.753 90.5,155.5C 83.0604,154.641 75.727,153.141 68.5,151C 56.2847,145.283 47.2847,136.45 41.5,124.5C 43.1959,126.129 44.1959,125.796 44.5,123.5C 45.1667,123.167 45.8333,122.833 46.5,122.5C 46.5106,124.017 47.1772,125.184 48.5,126C 46.8934,127.049 46.2267,128.549 46.5,130.5C 48.1993,130.473 49.5326,129.806 50.5,128.5C 50.0301,131.346 50.8634,133.679 53,135.5C 53.7172,134.956 54.2172,134.289 54.5,133.5C 54.8333,133.5 55.1667,133.5 55.5,133.5C 53.9125,135.619 54.2458,137.286 56.5,138.5C 57.3857,137.675 57.719,136.675 57.5,135.5C 57.8333,135.5 58.1667,135.5 58.5,135.5C 60.5988,136.37 60.9321,137.703 59.5,139.5C 61.5743,141.828 62.5743,141.161 62.5,137.5C 63.1667,137.5 63.8333,137.5 64.5,137.5C 63.9862,139.512 63.8195,141.512 64,143.5C 65.3561,144.38 66.8561,144.714 68.5,144.5C 68.3505,143.448 68.5172,142.448 69,141.5C 69.9799,143.059 70.8133,144.726 71.5,146.5C 73.2141,145.391 73.8808,146.058 73.5,148.5C 74.8333,148.5 76.1667,148.5 77.5,148.5C 78.816,142.019 79.6494,142.352 80,149.5C 81.2692,148.095 81.7692,146.429 81.5,144.5C 82.5,144.5 83.5,144.5 84.5,144.5C 84.8333,151.167 85.1667,151.167 85.5,144.5C 85.8333,144.5 86.1667,144.5 86.5,144.5C 86.5,146.5 86.5,148.5 86.5,150.5C 88.1667,150.5 89.8333,150.5 91.5,150.5C 91.5,149.5 91.5,148.5 91.5,147.5C 92.2679,148.263 92.7679,149.263 93,150.5C 93.49,149.207 93.6567,147.873 93.5,146.5C 94.29,147.609 94.79,148.942 95,150.5C 95.5823,147.332 96.5823,146.999 98,149.5C 98.4935,147.866 98.6602,146.199 98.5,144.5C 98.8333,144.5 99.1667,144.5 99.5,144.5C 99.7377,146.645 100.738,148.312 102.5,149.5C 103.714,147.141 103.714,144.808 102.5,142.5C 103.167,142.5 103.833,142.5 104.5,142.5C 104.247,144.827 104.914,146.827 106.5,148.5C 109.244,146.558 111.911,145.225 114.5,144.5C 115.051,142.587 115.218,140.587 115,138.5C 116.353,139.685 117.52,141.019 118.5,142.5C 119.524,141.147 120.857,140.48 122.5,140.5C 122.646,137.446 121.313,135.446 118.5,134.5C 118.918,133.778 119.584,133.278 120.5,133C 119.226,132.023 119.226,131.189 120.5,130.5C 120.987,131.473 121.487,132.473 122,133.5C 122.667,132.167 123.333,132.167 124,133.5C 124.492,134.549 124.326,135.549 123.5,136.5C 124.325,137.386 125.325,137.719 126.5,137.5C 126.483,135.435 126.15,133.435 125.5,131.5C 127.411,131.574 128.578,132.574 129,134.5C 128.845,132.189 128.845,129.856 129,127.5C 129.923,128.759 130.757,130.092 131.5,131.5C 134.696,129.192 136.196,126.192 136,122.5C 135.292,121.619 134.458,120.953 133.5,120.5C 134.026,118.77 135.026,117.436 136.5,116.5 Z"/></g>
<g><path style="opacity:0.859" fill="#473cd2" d="M 102.5,142.5 C 103.714,144.808 103.714,147.141 102.5,149.5C 100.738,148.312 99.7377,146.645 99.5,144.5C 100.222,143.449 101.222,142.782 102.5,142.5 Z"/></g>
<g><path style="opacity:0.902" fill="#524bda" d="M 91.5,147.5 C 91.5,148.5 91.5,149.5 91.5,150.5C 89.8333,150.5 88.1667,150.5 86.5,150.5C 86.5,148.5 86.5,146.5 86.5,144.5C 86.56,143.957 86.8933,143.624 87.5,143.5C 88.2978,145.078 88.7978,146.744 89,148.5C 89.3333,147.167 89.6667,145.833 90,144.5C 90.2321,145.737 90.7321,146.737 91.5,147.5 Z"/></g>
<g><path style="opacity:0.914" fill="#3228dd" d="M 98.5,144.5 C 98.6602,146.199 98.4935,147.866 98,149.5C 96.5823,146.999 95.5823,147.332 95,150.5C 94.79,148.942 94.29,147.609 93.5,146.5C 92.2241,145.614 92.2241,144.614 93.5,143.5C 95.3039,143.986 96.9706,144.319 98.5,144.5 Z"/></g>
<g><path style="opacity:0.8" fill="#584dda" d="M 118.5,134.5 C 121.313,135.446 122.646,137.446 122.5,140.5C 120.857,140.48 119.524,141.147 118.5,142.5C 117.52,141.019 116.353,139.685 115,138.5C 115.218,140.587 115.051,142.587 114.5,144.5C 111.911,145.225 109.244,146.558 106.5,148.5C 104.914,146.827 104.247,144.827 104.5,142.5C 104.435,142.062 104.601,141.728 105,141.5C 106.798,146.81 107.798,146.476 108,140.5C 109.376,145.729 110.543,145.729 111.5,140.5C 110.761,140.631 110.094,140.464 109.5,140C 111.601,137.527 114.267,136.36 117.5,136.5C 117.281,137.675 117.614,138.675 118.5,139.5C 118.833,139 119.167,138.5 119.5,138C 119.011,136.862 118.678,135.695 118.5,134.5 Z"/></g>
<g><path style="opacity:0.871" fill="#5045d3" d="M 61.5,133.5 C 63.1376,134.705 63.4709,136.038 62.5,137.5C 62.5743,141.161 61.5743,141.828 59.5,139.5C 60.9321,137.703 60.5988,136.37 58.5,135.5C 58.8212,133.952 59.8212,133.285 61.5,133.5 Z"/></g>
<g><path style="opacity:0.835" fill="#5449db" d="M 79.5,141.5 C 81.5,142.5 83.5,143.5 85.5,144.5C 85.1667,151.167 84.8333,151.167 84.5,144.5C 83.5,144.5 82.5,144.5 81.5,144.5C 81.7692,146.429 81.2692,148.095 80,149.5C 79.6494,142.352 78.816,142.019 77.5,148.5C 76.1667,148.5 74.8333,148.5 73.5,148.5C 73.8808,146.058 73.2141,145.391 71.5,146.5C 70.8133,144.726 69.9799,143.059 69,141.5C 68.5172,142.448 68.3505,143.448 68.5,144.5C 66.8561,144.714 65.3561,144.38 64,143.5C 63.8195,141.512 63.9862,139.512 64.5,137.5C 64.56,136.957 64.8933,136.624 65.5,136.5C 67.2199,138.131 69.2199,139.297 71.5,140C 71.5943,141.422 71.9276,142.922 72.5,144.5C 74.2832,140.597 75.4498,140.93 76,145.5C 76.0572,143.09 77.2239,141.756 79.5,141.5 Z"/></g>
<g><path style="opacity:0.808" fill="#5548d7" d="M 57.5,135.5 C 57.719,136.675 57.3857,137.675 56.5,138.5C 54.2458,137.286 53.9125,135.619 55.5,133.5C 55.5,133.167 55.5,132.833 55.5,132.5C 56.1174,132.389 56.6174,132.056 57,131.5C 56.6692,133.019 56.8359,134.352 57.5,135.5 Z"/></g>
<g><path style="opacity:0.91" fill="#5d4ed7" d="M 125.5,131.5 C 126.15,133.435 126.483,135.435 126.5,137.5C 125.325,137.719 124.325,137.386 123.5,136.5C 124.326,135.549 124.492,134.549 124,133.5C 123.333,132.167 122.667,132.167 122,133.5C 121.487,132.473 120.987,131.473 120.5,130.5C 120.811,129.522 121.478,128.855 122.5,128.5C 123.696,128.846 123.696,129.346 122.5,130C 123.527,130.513 124.527,131.013 125.5,131.5 Z"/></g>
<g><path style="opacity:0.412" fill="#645be3" d="M 54.5,132.5 C 54.5,132.833 54.5,133.167 54.5,133.5C 54.2172,134.289 53.7172,134.956 53,135.5C 50.8634,133.679 50.0301,131.346 50.5,128.5C 54.5,127.167 55.8333,128.5 54.5,132.5 Z"/></g>
<g><path style="opacity:0.953" fill="#6254dc" d="M 46.5,122.5 C 49.7756,123.122 51.1089,125.122 50.5,128.5C 49.5326,129.806 48.1993,130.473 46.5,130.5C 46.2267,128.549 46.8934,127.049 48.5,126C 47.1772,125.184 46.5106,124.017 46.5,122.5 Z"/></g>
<g><path style="opacity:0.859" fill="#6351de" d="M 133.5,120.5 C 134.458,120.953 135.292,121.619 136,122.5C 136.196,126.192 134.696,129.192 131.5,131.5C 130.757,130.092 129.923,128.759 129,127.5C 128.845,129.856 128.845,132.189 129,134.5C 128.578,132.574 127.411,131.574 125.5,131.5C 125.351,130.448 125.517,129.448 126,128.5C 129.072,126.265 131.572,123.598 133.5,120.5 Z"/></g>
<g><path style="opacity:1" fill="#5445d8" d="M 44.5,123.5 C 44.1959,125.796 43.1959,126.129 41.5,124.5C 42.4278,121.87 43.4278,119.204 44.5,116.5C 43.9569,115.136 43.7902,113.803 44,112.5C 45.5,114 47,115.5 48.5,117C 45.2768,117.938 43.9435,120.105 44.5,123.5 Z"/></g>
<g><path style="opacity:0.995" fill="#fafafc" d="M 37.5,86.5 C 37.5,94.1667 37.5,101.833 37.5,109.5C 53.3422,109.83 69.0089,109.496 84.5,108.5C 88.1667,108.5 91.8333,108.5 95.5,108.5C 95.756,104.731 95.4227,101.064 94.5,97.5C 96.369,99.6353 97.0356,102.302 96.5,105.5C 96.5,106.833 96.5,108.167 96.5,109.5C 111.833,109.5 127.167,109.5 142.5,109.5C 143.492,102.018 143.825,94.3516 143.5,86.5C 144.117,86.6107 144.617,86.944 145,87.5C 147.516,99.0114 146.35,110.011 141.5,120.5C 141.167,120.5 140.833,120.5 140.5,120.5C 140.297,118.956 139.63,117.622 138.5,116.5C 137.743,115.227 137.077,115.227 136.5,116.5C 135.026,117.436 134.026,118.77 133.5,120.5C 131.572,123.598 129.072,126.265 126,128.5C 125.517,129.448 125.351,130.448 125.5,131.5C 124.527,131.013 123.527,130.513 122.5,130C 123.696,129.346 123.696,128.846 122.5,128.5C 121.478,128.855 120.811,129.522 120.5,130.5C 119.226,131.189 119.226,132.023 120.5,133C 119.584,133.278 118.918,133.778 118.5,134.5C 118.678,135.695 119.011,136.862 119.5,138C 119.167,138.5 118.833,139 118.5,139.5C 117.614,138.675 117.281,137.675 117.5,136.5C 114.267,136.36 111.601,137.527 109.5,140C 110.094,140.464 110.761,140.631 111.5,140.5C 110.543,145.729 109.376,145.729 108,140.5C 107.798,146.476 106.798,146.81 105,141.5C 104.601,141.728 104.435,142.062 104.5,142.5C 103.833,142.5 103.167,142.5 102.5,142.5C 101.222,142.782 100.222,143.449 99.5,144.5C 99.1667,144.5 98.8333,144.5 98.5,144.5C 96.9706,144.319 95.3039,143.986 93.5,143.5C 92.2241,144.614 92.2241,145.614 93.5,146.5C 93.6567,147.873 93.49,149.207 93,150.5C 92.7679,149.263 92.2679,148.263 91.5,147.5C 90.7321,146.737 90.2321,145.737 90,144.5C 89.6667,145.833 89.3333,147.167 89,148.5C 88.7978,146.744 88.2978,145.078 87.5,143.5C 86.8933,143.624 86.56,143.957 86.5,144.5C 86.1667,144.5 85.8333,144.5 85.5,144.5C 83.5,143.5 81.5,142.5 79.5,141.5C 77.2239,141.756 76.0572,143.09 76,145.5C 75.4498,140.93 74.2832,140.597 72.5,144.5C 71.9276,142.922 71.5943,141.422 71.5,140C 69.2199,139.297 67.2199,138.131 65.5,136.5C 64.8933,136.624 64.56,136.957 64.5,137.5C 63.8333,137.5 63.1667,137.5 62.5,137.5C 63.4709,136.038 63.1376,134.705 61.5,133.5C 59.8212,133.285 58.8212,133.952 58.5,135.5C 58.1667,135.5 57.8333,135.5 57.5,135.5C 56.8359,134.352 56.6692,133.019 57,131.5C 56.6174,132.056 56.1174,132.389 55.5,132.5C 55.1667,132.5 54.8333,132.5 54.5,132.5C 55.8333,128.5 54.5,127.167 50.5,128.5C 51.1089,125.122 49.7756,123.122 46.5,122.5C 45.8333,122.833 45.1667,123.167 44.5,123.5C 43.9435,120.105 45.2768,117.938 48.5,117C 47,115.5 45.5,114 44,112.5C 43.7902,113.803 43.9569,115.136 44.5,116.5C 43.4278,119.204 42.4278,121.87 41.5,124.5C 40.6851,123.571 39.8518,122.571 39,121.5C 37.6449,117.061 36.1449,112.727 34.5,108.5C 34.3338,102.491 34.5005,96.4908 35,90.5C 35.2004,88.6803 36.0337,87.347 37.5,86.5 Z M 87.5,95.5 C 90.2282,95.1706 92.5615,95.8372 94.5,97.5C 95.4227,101.064 95.756,104.731 95.5,108.5C 91.8333,108.5 88.1667,108.5 84.5,108.5C 83.8392,103.684 84.8392,99.3508 87.5,95.5 Z"/></g>
<g><path style="opacity:0.792" fill="#6c65d0" d="M 79.5,141.5 C 79.281,140.325 79.6143,139.325 80.5,138.5C 81.7979,140.052 81.4646,141.052 79.5,141.5 Z"/></g>
<g><path style="opacity:0.914" fill="#5149d7" d="M 61.5,133.5 C 60.2717,130.074 61.2717,129.741 64.5,132.5C 63.675,133.386 62.675,133.719 61.5,133.5 Z"/></g>
<g><path style="opacity:0.898" fill="#3c33d4" d="M 140.5,120.5 C 138.736,119.674 137.402,118.341 136.5,116.5C 137.077,115.227 137.743,115.227 138.5,116.5C 139.63,117.622 140.297,118.956 140.5,120.5 Z"/></g>
<g><path style="opacity:0.892" fill="#b53a35" d="M 37.5,83.5 C 39.099,83.2322 40.4324,83.5655 41.5,84.5C 40.5,84.5 39.5,84.5 38.5,84.5C 38.5,88.1667 38.5,91.8333 38.5,95.5C 38.5,98.8333 38.5,102.167 38.5,105.5C 38.5,106.5 38.5,107.5 38.5,108.5C 53.5,108.5 68.5,108.5 83.5,108.5C 83.5,107.5 83.5,106.5 83.5,105.5C 83.8366,101.989 83.8366,98.6556 83.5,95.5C 84.8333,95.5 86.1667,95.5 87.5,95.5C 84.8392,99.3508 83.8392,103.684 84.5,108.5C 69.0089,109.496 53.3422,109.83 37.5,109.5C 37.5,101.833 37.5,94.1667 37.5,86.5C 37.5,85.5 37.5,84.5 37.5,83.5 Z"/></g>
<g><path style="opacity:0.945" fill="#211e36" d="M 41.5,68.5 C 38.1734,74.8265 35.6734,81.4931 34,88.5C 33.1794,95.3464 33.346,102.013 34.5,108.5C 35.6262,116.212 37.9596,123.546 41.5,130.5C 38.5849,127.01 36.4182,123.01 35,118.5C 29.0361,100.642 31.2028,83.9752 41.5,68.5 Z"/></g>
<g><path style="opacity:1" fill="#bf1819" d="M 142.5,105.5 C 142.5,106.833 142.5,108.167 142.5,109.5C 127.167,109.5 111.833,109.5 96.5,109.5C 96.5,108.167 96.5,106.833 96.5,105.5C 111.693,104.976 127.026,104.976 142.5,105.5 Z"/></g>
<g><path style="opacity:0.824" fill="#414141" d="M 161.5,101.5 C 163.337,101.639 163.67,102.306 162.5,103.5C 161.702,103.043 161.369,102.376 161.5,101.5 Z"/></g>
<g><path style="opacity:0.894" fill="#363636" d="M 156.5,101.5 C 158.337,101.639 158.67,102.306 157.5,103.5C 156.702,103.043 156.369,102.376 156.5,101.5 Z"/></g>
<g><path style="opacity:0.788" fill="#c2827e" d="M 139.5,84.5 C 140.209,83.596 141.209,83.2627 142.5,83.5C 143.404,84.209 143.737,85.209 143.5,86.5C 143.825,94.3516 143.492,102.018 142.5,109.5C 142.5,108.167 142.5,106.833 142.5,105.5C 142.5,102.167 142.5,98.8333 142.5,95.5C 142.5,91.8333 142.5,88.1667 142.5,84.5C 141.5,84.5 140.5,84.5 139.5,84.5 Z"/></g>
<g><path style="opacity:0.995" fill="#202020" d="M 14.5,78.5 C 15.404,79.209 15.7373,80.209 15.5,81.5C 18.7864,81.9288 21.9531,81.9288 25,81.5C 25.4828,82.448 25.6495,83.448 25.5,84.5C 21.5191,83.9791 17.5191,83.6458 13.5,83.5C 13.366,81.7085 13.6993,80.0418 14.5,78.5 Z"/></g>
<g><path style="opacity:0.967" fill="#1e1e1e" d="M 160.5,79.5 C 162.476,80.4271 162.809,81.7605 161.5,83.5C 159.097,84.7044 156.764,85.0378 154.5,84.5C 156.173,82.9137 158.173,82.2471 160.5,82.5C 160.5,81.5 160.5,80.5 160.5,79.5 Z"/></g>
<g><path style="opacity:0.993" fill="#2d2d2d" d="M 155.5,68.5 C 158.85,69.3784 159.183,70.8784 156.5,73C 157.624,73.2492 158.624,73.7492 159.5,74.5C 155.51,78.921 152.51,78.421 150.5,73C 151.932,71.2437 153.599,69.7437 155.5,68.5 Z"/></g>
<g><path style="opacity:0.983" fill="#292929" d="M 21.5,71.5 C 22.1641,72.648 22.3308,73.9813 22,75.5C 23.4598,72.7902 25.4598,72.1235 28,73.5C 28.5068,75.8346 27.8401,77.8346 26,79.5C 25.8047,77.7928 25.8047,76.1261 26,74.5C 24.5402,77.2098 22.5402,77.8765 20,76.5C 19.3872,74.5048 19.8872,72.8381 21.5,71.5 Z"/></g>
<g><path style="opacity:0.965" fill="#1c1b21" d="M 119.5,149.5 C 147.861,128.236 154.361,101.569 139,69.5C 124.533,48.8541 104.7,40.0208 79.5,43C 72.4931,44.6734 65.8265,47.1734 59.5,50.5C 72.4748,41.445 86.8081,38.6117 102.5,42C 137.399,53.2515 152.233,77.0848 147,113.5C 142.825,129.485 133.658,141.485 119.5,149.5 Z"/></g>
<g><path style="opacity:0.933" fill="#8c89e0" d="M 119.5,149.5 C 118.167,149.5 116.833,149.5 115.5,149.5C 127.594,143.029 136.261,133.362 141.5,120.5C 146.35,110.011 147.516,99.0114 145,87.5C 144.617,86.944 144.117,86.6107 143.5,86.5C 143.737,85.209 143.404,84.209 142.5,83.5C 141.109,77.3813 138.609,71.7146 135,66.5C 118.16,46.5339 96.993,40.0339 71.5,47C 54.3861,53.9419 43.0527,66.1085 37.5,83.5C 37.5,84.5 37.5,85.5 37.5,86.5C 36.0337,87.347 35.2004,88.6803 35,90.5C 34.5005,96.4908 34.3338,102.491 34.5,108.5C 33.346,102.013 33.1794,95.3464 34,88.5C 35.6734,81.4931 38.1734,74.8265 41.5,68.5C 47.1667,62.1667 53.1667,56.1667 59.5,50.5C 65.8265,47.1734 72.4931,44.6734 79.5,43C 104.7,40.0208 124.533,48.8541 139,69.5C 154.361,101.569 147.861,128.236 119.5,149.5 Z M 87.5,95.5 C 90.2282,95.1706 92.5615,95.8372 94.5,97.5C 95.4227,101.064 95.756,104.731 95.5,108.5C 91.8333,108.5 88.1667,108.5 84.5,108.5C 83.8392,103.684 84.8392,99.3508 87.5,95.5 Z"/></g>
<g><path style="opacity:1" fill="#c31415" d="M 38.5,105.5 C 53.5,105.5 68.5,105.5 83.5,105.5C 83.5,106.5 83.5,107.5 83.5,108.5C 68.5,108.5 53.5,108.5 38.5,108.5C 38.5,107.5 38.5,106.5 38.5,105.5 Z"/></g>
<g><path style="opacity:1" fill="#e4472d" d="M 142.5,95.5 C 142.5,98.8333 142.5,102.167 142.5,105.5C 127.026,104.976 111.693,104.976 96.5,105.5C 97.0356,102.302 96.369,99.6353 94.5,97.5C 92.5615,95.8372 90.2282,95.1706 87.5,95.5C 89.3432,94.7171 91.3432,94.0505 93.5,93.5C 94.1131,92.0202 94.4464,90.6869 94.5,89.5C 95.2283,91.1932 96.2283,92.6932 97.5,94C 112.501,94.5345 127.501,95.0345 142.5,95.5 Z"/></g>
<g><path style="opacity:1" fill="#e8492e" d="M 38.5,95.5 C 53.5,95.5 68.5,95.5 83.5,95.5C 83.8366,98.6556 83.8366,101.989 83.5,105.5C 68.5,105.5 53.5,105.5 38.5,105.5C 38.5,102.167 38.5,98.8333 38.5,95.5 Z"/></g>
<g><path style="opacity:1" fill="#c11918" d="M 41.5,84.5 C 42.5,84.5 43.5,84.5 44.5,84.5C 44.5,86.8333 44.5,89.1667 44.5,91.5C 46.1667,91.5 47.8333,91.5 49.5,91.5C 49.5,89.5 49.5,87.5 49.5,85.5C 51.861,85.6741 54.1944,86.0074 56.5,86.5C 56.5,88.1667 56.5,89.8333 56.5,91.5C 58.5,91.5 60.5,91.5 62.5,91.5C 62.3433,90.1266 62.51,88.7932 63,87.5C 64.3561,88.3802 65.8561,88.7135 67.5,88.5C 68.404,89.209 68.7373,90.209 68.5,91.5C 74.4708,91.3507 79.4708,89.184 83.5,85C 88.1667,84.3333 92.8333,84.3333 97.5,85C 101.24,88.9775 105.907,91.1442 111.5,91.5C 111.263,90.209 111.596,89.209 112.5,88.5C 114.262,88.6427 115.929,88.3094 117.5,87.5C 118.429,88.6888 118.762,90.0222 118.5,91.5C 120.5,91.5 122.5,91.5 124.5,91.5C 124.5,89.8333 124.5,88.1667 124.5,86.5C 126.5,86.5 128.5,86.5 130.5,86.5C 130.5,88.1667 130.5,89.8333 130.5,91.5C 132.5,91.5 134.5,91.5 136.5,91.5C 136.5,89.1667 136.5,86.8333 136.5,84.5C 137.5,84.5 138.5,84.5 139.5,84.5C 140.5,84.5 141.5,84.5 142.5,84.5C 142.5,88.1667 142.5,91.8333 142.5,95.5C 127.501,95.0345 112.501,94.5345 97.5,94C 96.2283,92.6932 95.2283,91.1932 94.5,89.5C 94.4464,90.6869 94.1131,92.0202 93.5,93.5C 91.3432,94.0505 89.3432,94.7171 87.5,95.5C 86.1667,95.5 84.8333,95.5 83.5,95.5C 68.5,95.5 53.5,95.5 38.5,95.5C 38.5,91.8333 38.5,88.1667 38.5,84.5C 39.5,84.5 40.5,84.5 41.5,84.5 Z"/></g>
<g><path style="opacity:0.989" fill="#2a2a2a" d="M 27.5,66.5 C 29.7929,65.6987 29.4596,65.032 26.5,64.5C 24.6214,64.6068 24.2881,64.1068 25.5,63C 30.6695,61.6732 32.6695,63.5065 31.5,68.5C 28.6881,69.3027 26.0215,68.8027 23.5,67C 24.7932,66.51 26.1266,66.3433 27.5,66.5 Z"/></g>
<g><path style="opacity:1" fill="#171329" d="M 59.5,50.5 C 53.1667,56.1667 47.1667,62.1667 41.5,68.5C 45.8333,60.8333 51.8333,54.8333 59.5,50.5 Z"/></g>
<g><path style="opacity:0.97" fill="#1e1e1e" d="M 150.5,58.5 C 156.083,62.7437 155.416,66.077 148.5,68.5C 147.479,67.9984 147.312,67.3317 148,66.5C 149.771,65.6959 151.271,64.5292 152.5,63C 150.542,61.421 148.542,61.5876 146.5,63.5C 146.167,63.1667 145.833,62.8333 145.5,62.5C 147.015,60.9178 148.681,59.5845 150.5,58.5 Z"/></g>
<g><path style="opacity:0.989" fill="#272727" d="M 29.5,55.5 C 31.9107,57.2191 34.5773,58.5524 37.5,59.5C 36.9653,61.1013 35.9653,61.6013 34.5,61C 31.921,59.9243 30.2543,58.091 29.5,55.5 Z"/></g>
<g><path style="opacity:0.967" fill="#1a1a1a" d="M 143.5,51.5 C 145.485,50.5665 146.818,51.3999 147.5,54C 145.45,59.0877 142.783,59.5877 139.5,55.5C 139.667,55.1667 139.833,54.8333 140,54.5C 142.229,57.1562 144.062,56.8229 145.5,53.5C 145.145,52.4777 144.478,51.811 143.5,51.5 Z"/></g>
<g><path style="opacity:0.97" fill="#141414" d="M 36.5,48.5 C 38.8418,48.7748 38.8418,49.6081 36.5,51C 38.3801,50.4902 40.2134,50.6569 42,51.5C 42.7789,53.9063 41.9456,55.573 39.5,56.5C 39.5,55.1667 39.5,53.8333 39.5,52.5C 34.5787,53.9184 33.5787,52.5851 36.5,48.5 Z"/></g>
<g><path style="opacity:0.954" fill="#202020" d="M 135.5,42.5 C 136.239,42.369 136.906,42.5357 137.5,43C 133.556,48.8768 134.556,49.7101 140.5,45.5C 140.833,45.8333 141.167,46.1667 141.5,46.5C 139.851,48.6499 138.018,50.6499 136,52.5C 134.401,50.944 132.901,49.2773 131.5,47.5C 132.857,45.8144 134.19,44.1477 135.5,42.5 Z"/></g>
<g><path style="opacity:0.965" fill="#252525" d="M 145.5,49.5 C 147.664,48.8817 149.33,49.8817 150.5,52.5C 150.167,52.8333 149.833,53.1667 149.5,53.5C 148.479,51.812 147.145,50.4787 145.5,49.5 Z"/></g>
<g><path style="opacity:0.922" fill="#323232" d="M 33.5,45.5 C 34.675,45.281 35.675,45.6143 36.5,46.5C 31.5607,53.4967 30.5607,53.1634 33.5,45.5 Z"/></g>
<g><path style="opacity:0.992" fill="#f9f7fa" d="M 142.5,83.5 C 141.209,83.2627 140.209,83.596 139.5,84.5C 138.5,84.5 137.5,84.5 136.5,84.5C 136.5,86.8333 136.5,89.1667 136.5,91.5C 134.5,91.5 132.5,91.5 130.5,91.5C 130.5,89.8333 130.5,88.1667 130.5,86.5C 128.5,86.5 126.5,86.5 124.5,86.5C 124.5,88.1667 124.5,89.8333 124.5,91.5C 122.5,91.5 120.5,91.5 118.5,91.5C 118.762,90.0222 118.429,88.6888 117.5,87.5C 115.929,88.3094 114.262,88.6427 112.5,88.5C 112.611,87.8826 112.944,87.3826 113.5,87C 111.65,86.3103 110.316,85.1436 109.5,83.5C 110.713,80.7746 112.546,78.4412 115,76.5C 115.667,75.8333 115.667,75.1667 115,74.5C 112.793,77.564 109.959,79.564 106.5,80.5C 105.571,79.6851 104.571,78.8518 103.5,78C 106.021,72.2293 105.521,72.0626 102,77.5C 100.53,76.7334 99.0295,76.0668 97.5,75.5C 98.4948,72.536 98.9948,69.536 99,66.5C 97.5544,68.9415 96.7211,71.6081 96.5,74.5C 94.8333,74.5 93.1667,74.5 91.5,74.5C 90.8333,61.1667 90.1667,61.1667 89.5,74.5C 87.712,74.7852 86.0453,74.4519 84.5,73.5C 83.6924,71.0748 82.6924,68.7415 81.5,66.5C 82.09,69.7172 82.09,73.0506 81.5,76.5C 80.8333,76.5 80.1667,76.5 79.5,76.5C 78.5041,76.5858 77.6708,76.2524 77,75.5C 76.0857,73.3359 74.919,71.3359 73.5,69.5C 73.1667,69.8333 72.8333,70.1667 72.5,70.5C 74.3716,72.9099 75.705,75.5766 76.5,78.5C 75.1619,80.1128 73.4952,80.6128 71.5,80C 69.6667,78.1667 67.8333,76.3333 66,74.5C 65.3333,75.1667 65.3333,75.8333 66,76.5C 68.0176,78.3501 69.8509,80.3501 71.5,82.5C 70.5905,84.3747 69.2572,85.708 67.5,86.5C 67.5,87.1667 67.5,87.8333 67.5,88.5C 65.8561,88.7135 64.3561,88.3802 63,87.5C 62.51,88.7932 62.3433,90.1266 62.5,91.5C 60.5,91.5 58.5,91.5 56.5,91.5C 56.5,89.8333 56.5,88.1667 56.5,86.5C 54.1944,86.0074 51.861,85.6741 49.5,85.5C 49.5,87.5 49.5,89.5 49.5,91.5C 47.8333,91.5 46.1667,91.5 44.5,91.5C 44.5,89.1667 44.5,86.8333 44.5,84.5C 43.5,84.5 42.5,84.5 41.5,84.5C 40.4324,83.5655 39.099,83.2322 37.5,83.5C 43.0527,66.1085 54.3861,53.9419 71.5,47C 96.993,40.0339 118.16,46.5339 135,66.5C 138.609,71.7146 141.109,77.3813 142.5,83.5 Z"/></g>
<g><path style="opacity:0.808" fill="#d85e88" d="M 67.5,86.5 C 64.91,85.8717 62.5766,84.705 60.5,83C 63.3359,83.0846 65.6693,84.2513 67.5,86.5 Z"/></g>
<g><path style="opacity:0.835" fill="#e1799b" d="M 109.5,83.5 C 108.5,82.5 107.5,81.5 106.5,80.5C 109.959,79.564 112.793,77.564 115,74.5C 115.667,75.1667 115.667,75.8333 115,76.5C 112.546,78.4412 110.713,80.7746 109.5,83.5 Z"/></g>
<g><path style="opacity:1" fill="#f81063" d="M 106.5,80.5 C 107.5,81.5 108.5,82.5 109.5,83.5C 110.316,85.1436 111.65,86.3103 113.5,87C 112.944,87.3826 112.611,87.8826 112.5,88.5C 111.596,89.209 111.263,90.209 111.5,91.5C 105.907,91.1442 101.24,88.9775 97.5,85C 92.8333,84.3333 88.1667,84.3333 83.5,85C 79.4708,89.184 74.4708,91.3507 68.5,91.5C 68.7373,90.209 68.404,89.209 67.5,88.5C 67.5,87.8333 67.5,87.1667 67.5,86.5C 69.2572,85.708 70.5905,84.3747 71.5,82.5C 69.8509,80.3501 68.0176,78.3501 66,76.5C 65.3333,75.8333 65.3333,75.1667 66,74.5C 67.8333,76.3333 69.6667,78.1667 71.5,80C 73.4952,80.6128 75.1619,80.1128 76.5,78.5C 77.7095,78.0679 78.7095,77.4013 79.5,76.5C 80.1667,76.5 80.8333,76.5 81.5,76.5C 86.8634,76.1974 92.1967,75.8641 97.5,75.5C 99.0295,76.0668 100.53,76.7334 102,77.5C 105.521,72.0626 106.021,72.2293 103.5,78C 104.571,78.8518 105.571,79.6851 106.5,80.5 Z"/></g>
<g><path style="opacity:1" fill="#e8628a" d="M 97.5,75.5 C 92.1967,75.8641 86.8634,76.1974 81.5,76.5C 82.09,73.0506 82.09,69.7172 81.5,66.5C 82.6924,68.7415 83.6924,71.0748 84.5,73.5C 86.0453,74.4519 87.712,74.7852 89.5,74.5C 90.1667,61.1667 90.8333,61.1667 91.5,74.5C 93.1667,74.5 94.8333,74.5 96.5,74.5C 96.7211,71.6081 97.5544,68.9415 99,66.5C 98.9948,69.536 98.4948,72.536 97.5,75.5 Z"/></g>
<g><path style="opacity:0.847" fill="#e2759a" d="M 79.5,76.5 C 78.7095,77.4013 77.7095,78.0679 76.5,78.5C 75.705,75.5766 74.3716,72.9099 72.5,70.5C 72.8333,70.1667 73.1667,69.8333 73.5,69.5C 74.919,71.3359 76.0857,73.3359 77,75.5C 77.6708,76.2524 78.5041,76.5858 79.5,76.5 Z"/></g>
<g><path style="opacity:0.863" fill="#6559d8" d="M 114.5,58.5 C 117.388,58.2196 118.888,59.5529 119,62.5C 120.555,60.8542 122.221,60.5209 124,61.5C 123.874,64.0977 122.874,66.431 121,68.5C 121.195,66.8739 121.195,65.2072 121,63.5C 119.946,65.7536 118.446,66.087 116.5,64.5C 115.269,63.3493 115.269,62.1827 116.5,61C 114.065,60.9252 113.398,60.0919 114.5,58.5 Z"/></g>
<g><path style="opacity:0.631" fill="#6e64d7" d="M 59.5,61.5 C 59.5,62.1667 59.8333,62.5 60.5,62.5C 63.3532,66.1467 63.0199,66.8134 59.5,64.5C 58.269,65.6507 58.269,66.8173 59.5,68C 58.6683,68.6877 58.0016,68.521 57.5,67.5C 56.3595,66.5745 56.3595,65.7412 57.5,65C 56.8333,64.6667 56.1667,64.3333 55.5,64C 56.4709,62.5187 57.8042,61.6854 59.5,61.5 Z"/></g>
<g><path style="opacity:0.776" fill="#4039cc" d="M 65.5,61.5 C 65.6495,62.552 65.4828,63.552 65,64.5C 64.2904,63.0267 63.1238,62.3601 61.5,62.5C 61.5,62.1667 61.5,61.8333 61.5,61.5C 62.8333,60.1667 64.1667,60.1667 65.5,61.5 Z"/></g>
<g><path style="opacity:0.725" fill="#1e1dd5" d="M 67.5,59.5 C 69.0107,61.8375 68.6773,62.5042 66.5,61.5C 66.3284,60.5084 66.6618,59.8417 67.5,59.5 Z"/></g>
<g><path style="opacity:0.914" fill="#6155da" d="M 86.5,58.5 C 88.4646,58.9483 88.7979,59.9483 87.5,61.5C 86.6143,60.675 86.281,59.675 86.5,58.5 Z"/></g>
<g><path style="opacity:0.412" fill="#5849d9" d="M 71.5,56.5 C 74.2033,58.5343 74.0366,60.201 71,61.5C 68.9908,60.5179 68.4908,59.1846 69.5,57.5C 71.0046,60.1306 71.6713,59.7973 71.5,56.5 Z"/></g>
<g><path style="opacity:0.776" fill="#9996e2" d="M 67.5,59.5 C 66.6618,59.8417 66.3284,60.5084 66.5,61.5C 66.1667,61.5 65.8333,61.5 65.5,61.5C 64.1667,60.1667 62.8333,60.1667 61.5,61.5C 60.5896,59.4986 61.4229,58.1653 64,57.5C 64.3333,58.1667 64.6667,58.8333 65,59.5C 65.9772,58.2264 66.8106,58.2264 67.5,59.5 Z"/></g>
<g><path style="opacity:0.902" fill="#4539d5" d="M 76.5,53.5 C 80.2499,55.9501 80.0833,57.9501 76,59.5C 72.5614,55.4949 73.0614,54.6615 77.5,57C 76.6634,55.9887 76.33,54.8221 76.5,53.5 Z"/></g>
<g><path style="opacity:0.929" fill="#4237d9" d="M 103.5,54.5 C 104.686,55.7054 104.686,57.0387 103.5,58.5C 101.368,58.4456 100.035,57.4456 99.5,55.5C 100.222,55.0825 100.722,54.4158 101,53.5C 101.249,54.624 101.749,55.624 102.5,56.5C 103.298,56.0431 103.631,55.3764 103.5,54.5 Z"/></g>
<g><path style="opacity:0.486" fill="#6056d6" d="M 103.5,54.5 C 103.56,53.9569 103.893,53.6236 104.5,53.5C 105.167,54.1667 105.833,54.8333 106.5,55.5C 107.5,54.1667 108.5,54.1667 109.5,55.5C 112.563,57.0048 113.063,59.0048 111,61.5C 109.313,61.1838 108.146,59.8504 107.5,57.5C 106.803,56.6344 105.47,56.9677 103.5,58.5C 104.686,57.0387 104.686,55.7054 103.5,54.5 Z"/></g>
<g><path style="opacity:0.718" fill="#3228d5" d="M 95.5,52.5 C 96.2679,53.2625 96.7679,54.2625 97,55.5C 97.5556,53.4049 98.0556,53.2382 98.5,55C 98.3865,56.2798 97.7199,57.1131 96.5,57.5C 95.5481,55.9547 95.2148,54.288 95.5,52.5 Z"/></g>
<g><path style="opacity:0.71" fill="#4b45d9" d="M 87.5,57.5 C 87.5,56.8333 87.1667,56.5 86.5,56.5C 86.631,55.7611 86.4643,55.0944 86,54.5C 85.6667,55.5 85.3333,56.5 85,57.5C 84.5983,56.1279 84.0983,54.7946 83.5,53.5C 87.9534,51.9525 89.2868,53.2858 87.5,57.5 Z"/></g>
<g><path style="opacity:0.737" fill="#4e42d2" d="M 90.5,51.5 C 91.4959,51.4142 92.3292,51.7476 93,52.5C 93.6667,54.1667 93.6667,55.8333 93,57.5C 92.6667,56.1667 92.3333,54.8333 92,53.5C 91.7508,54.624 91.2508,55.624 90.5,56.5C 89.3336,54.8327 89.3336,53.166 90.5,51.5 Z"/></g>
<g><path style="opacity:0.994" fill="#2c2c2c" d="M 44.5,42.5 C 44.5,43.8333 45.1667,44.5 46.5,44.5C 46.1667,43.8333 45.8333,43.1667 45.5,42.5C 45.5173,40.9719 46.184,40.4719 47.5,41C 52.1534,45.8741 51.1534,48.7075 44.5,49.5C 44.297,47.3618 43.297,45.6951 41.5,44.5C 42.0047,43.0815 43.0047,42.4148 44.5,42.5 Z M 44.5,42.5 C 44.8333,42.5 45.1667,42.5 45.5,42.5C 45.8333,43.1667 46.1667,43.8333 46.5,44.5C 45.1667,44.5 44.5,43.8333 44.5,42.5 Z"/></g>
<g><path style="opacity:0.972" fill="#272727" d="M 126.5,35.5 C 128.612,36.4396 130.612,37.6063 132.5,39C 130.954,41.2568 129.288,43.4235 127.5,45.5C 127.167,44.1667 126.833,42.8333 126.5,41.5C 125.116,44.1326 123.782,44.1326 122.5,41.5C 124.059,39.8693 126.059,39.036 128.5,39C 127.672,38.0853 126.672,37.4186 125.5,37C 126.056,36.6174 126.389,36.1174 126.5,35.5 Z"/></g>
<g><path style="opacity:0.972" fill="#1d1d1d" d="M 55.5,34.5 C 56.4959,34.4142 57.3292,34.7476 58,35.5C 58.7065,37.0806 59.5399,38.5806 60.5,40C 58.6951,40.972 57.0284,42.1387 55.5,43.5C 53.3674,41.9095 51.7007,39.9095 50.5,37.5C 51.0016,36.479 51.6683,36.3123 52.5,37C 53.3041,38.7713 54.4708,40.2713 56,41.5C 56.6924,40.9747 57.1924,40.3081 57.5,39.5C 56.5435,37.9246 55.8769,36.258 55.5,34.5 Z"/></g>
<g><path style="opacity:0.973" fill="#1a1a1a" d="M 119.5,32.5 C 120.376,32.3691 121.043,32.7025 121.5,33.5C 119.739,35.5645 119.405,37.7311 120.5,40C 119.552,40.4828 118.552,40.6495 117.5,40.5C 117.56,37.6592 118.226,34.9925 119.5,32.5 Z"/></g>
<g><path style="opacity:0.994" fill="#161616" d="M 115.5,30.5 C 116.376,30.3691 117.043,30.7025 117.5,31.5C 116.349,33.7731 115.349,36.1065 114.5,38.5C 114.167,37.8333 113.833,37.1667 113.5,36.5C 114.178,34.484 114.844,32.484 115.5,30.5 Z"/></g>
<g><path style="opacity:0.952" fill="#1f1f1f" d="M 64.5,29.5 C 69.112,30.3424 70.7787,33.0091 69.5,37.5C 65.7064,29.3156 64.0397,29.6489 64.5,38.5C 62.5484,35.2725 62.5484,32.2725 64.5,29.5 Z"/></g>
<g><path style="opacity:0.98" fill="#121212" d="M 104.5,27.5 C 105.165,29.6979 105.832,32.0312 106.5,34.5C 108.441,32.6841 109.108,30.6841 108.5,28.5C 111.668,33.0444 110.335,35.3777 104.5,35.5C 104.5,32.8333 104.5,30.1667 104.5,27.5 Z"/></g>
<g><path style="opacity:0.624" fill="#292929" d="M 91.5,26.5 C 92.7498,26.5774 93.5831,27.244 94,28.5C 94.3076,27.6919 94.8076,27.0253 95.5,26.5C 96.8333,30.5 98.1667,30.5 99.5,26.5C 99.9413,29.2275 99.2746,31.8942 97.5,34.5C 96.4164,33.3349 95.5831,32.0016 95,30.5C 94.6322,31.91 93.7989,32.91 92.5,33.5C 91.5258,31.2573 91.1924,28.924 91.5,26.5 Z"/></g>
<g><path style="opacity:0.967" fill="#2a2a2a" d="M 71.5,27.5 C 72.675,27.281 73.675,27.6143 74.5,28.5C 75.961,30.8109 76.2943,33.1442 75.5,35.5C 74.5726,33.8872 73.7393,32.2205 73,30.5C 71.8647,30.273 70.698,29.9396 69.5,29.5C 70.2427,28.8182 70.9094,28.1515 71.5,27.5 Z"/></g>
<g><path style="opacity:0.431" fill="#2c2c2c" d="M 64.5,26.5 C 65.675,26.281 66.675,26.6143 67.5,27.5C 65.9483,28.7979 64.9483,28.4646 64.5,26.5 Z"/></g>
<g><path style="opacity:0.978" fill="#181818" d="M 84.5,26.5 C 86.1408,28.2029 87.1408,30.3695 87.5,33C 86.552,33.4828 85.552,33.6495 84.5,33.5C 84.5,31.1667 84.5,28.8333 84.5,26.5 Z"/></g>
<g><path style="opacity:0.977" fill="#222222" d="M 79.5,26.5 C 81.5549,28.2339 82.8882,30.5672 83.5,33.5C 82.675,34.3857 81.675,34.719 80.5,34.5C 80.4249,31.7938 80.0916,29.1272 79.5,26.5 Z"/></g>
<g><path style="opacity:0.8" fill="#5b5b5b" d="M 43.5,153.5 C 44.2389,153.369 44.9056,153.536 45.5,154C 44.2888,154.893 44.2888,155.726 45.5,156.5C 46.451,155.674 47.451,155.508 48.5,156C 46.981,157.351 45.6477,158.851 44.5,160.5C 44.7948,159.174 44.2948,157.841 43,156.5C 42.1887,157.96 41.3554,158.293 40.5,157.5C 41.5244,156.148 42.5244,154.815 43.5,153.5 Z"/></g>
<g><path style="opacity:0.824" fill="#2e2e2e" d="M 138.5,154.5 C 140.085,155.002 140.585,156.002 140,157.5C 138.961,156.756 138.461,155.756 138.5,154.5 Z"/></g>
<g><path style="opacity:0.875" fill="#3b3b3b" d="M 130.5,156.5 C 132.609,157.052 133.442,158.386 133,160.5C 131.519,159.529 130.685,158.196 130.5,156.5 Z"/></g>
<g><path style="opacity:0.125" fill="#0072d8" d="M 448.5,158.5 C 449.833,159.167 449.833,159.167 448.5,158.5 Z"/></g>
<g><path style="opacity:0.125" fill="#0072d8" d="M 1144.5,158.5 C 1145.83,159.167 1145.83,159.167 1144.5,158.5 Z"/></g>
<g><path style="opacity:0.349" fill="#424242" d="M 125.5,160.5 C 125.561,162.592 126.561,164.092 128.5,165C 125.549,167.044 123.216,166.378 121.5,163C 122.094,162.536 122.761,162.369 123.5,162.5C 123.5,161.167 124.167,160.5 125.5,160.5 Z"/></g>
<g><path style="opacity:0.937" fill="#494949" d="M 51.5,159.5 C 52.6935,159.97 53.3601,160.97 53.5,162.5C 52.9481,166.257 51.9481,166.257 50.5,162.5C 49.6043,163.506 48.9377,163.506 48.5,162.5C 49.7701,161.712 50.7701,160.712 51.5,159.5 Z"/></g>
<g><path style="opacity:0.878" fill="#282828" d="M 58.5,162.5 C 59.2389,162.369 59.9056,162.536 60.5,163C 59.624,164.586 58.624,166.086 57.5,167.5C 57.1667,167.333 56.8333,167.167 56.5,167C 57.5822,165.67 58.2488,164.17 58.5,162.5 Z"/></g>
<g><path style="opacity:0.824" fill="#757575" d="M 65.5,164.5 C 67.2572,165.292 68.5905,166.625 69.5,168.5C 70.1924,167.975 70.6924,167.308 71,166.5C 71.1113,172.813 69.778,173.479 67,168.5C 66.7508,169.624 66.2508,170.624 65.5,171.5C 65.1667,171.167 64.8333,170.833 64.5,170.5C 65.3482,168.591 65.6816,166.591 65.5,164.5 Z"/></g>
<g><path style="opacity:0.847" fill="#616161" d="M 108.5,166.5 C 110.471,167.823 112.471,169.156 114.5,170.5C 114.167,170.833 113.833,171.167 113.5,171.5C 112.5,170.833 111.5,170.167 110.5,169.5C 110.331,170.397 109.998,171.397 109.5,172.5C 108.534,170.604 108.201,168.604 108.5,166.5 Z"/></g>
<g><path style="opacity:0.251" fill="#0072d8" d="M 836.5,170.5 C 835.833,171.167 835.833,171.167 836.5,170.5 Z"/></g>
<g><path style="opacity:0.839" fill="#686868" d="M 84.5,168.5 C 85.675,168.281 86.675,168.614 87.5,169.5C 86.8333,169.833 86.1667,170.167 85.5,170.5C 88.268,172.625 88.1013,174.291 85,175.5C 83.7202,175.387 82.8869,174.72 82.5,173.5C 83.2624,173.089 84.2624,172.923 85.5,173C 83.4523,171.774 83.119,170.274 84.5,168.5 Z"/></g>
<g><path style="opacity:0.847" fill="#838383" d="M 74.5,169.5 C 75.1577,170.398 75.8243,171.398 76.5,172.5C 78.5743,170.172 79.5743,170.839 79.5,174.5C 75.5,175.167 73.8333,173.5 74.5,169.5 Z"/></g>
<g><path style="opacity:0.808" fill="#585858" d="M 100.5,168.5 C 101.309,169.469 102.309,170.302 103.5,171C 102.929,172.205 102.262,173.372 101.5,174.5C 100.534,172.604 100.201,170.604 100.5,168.5 Z"/></g>
<g><path style="opacity:0.784" fill="#6a6a6a" d="M 92.5,169.5 C 93.4959,169.414 94.3292,169.748 95,170.5C 95.3095,171.766 95.8095,172.933 96.5,174C 95.451,174.492 94.451,174.326 93.5,173.5C 92.8333,174.167 92.1667,174.833 91.5,175.5C 91.1667,175.167 90.8333,174.833 90.5,174.5C 91.4565,172.925 92.1231,171.258 92.5,169.5 Z"/></g>
<g><path style="opacity:0.251" fill="#0072d8" d="M 844.5,174.5 C 845.833,175.167 845.833,175.167 844.5,174.5 Z"/></g>
<g><path style="opacity:0.188" fill="#0072d8" d="M 921.5,177.5 C 922.833,178.167 922.833,178.167 921.5,177.5 Z"/></g>
<g><path style="opacity:0.188" fill="#0072d8" d="M 924.5,177.5 C 923.833,178.167 923.833,178.167 924.5,177.5 Z"/></g>
</svg>
